<?xml version="1.0" encoding="UTF-8" standalone="no"?>
<!DOCTYPE svg PUBLIC "-//W3C//DTD SVG 1.1//EN"
 "http://www.w3.org/Graphics/SVG/1.1/DTD/svg11.dtd">
<!-- Generated by graphviz version 2.40.1 (0)
 -->
<!-- Title: flowchart Pages: 1 -->
<svg width="2142pt" height="419pt"
 viewBox="0.00 0.00 2141.52 418.80" xmlns="http://www.w3.org/2000/svg" xmlns:xlink="http://www.w3.org/1999/xlink">
<g id="graph0" class="graph" transform="scale(1 1) rotate(0) translate(4 414.8)">
<title>flowchart</title>
<polygon fill="#ffffff" stroke="transparent" points="-4,4 -4,-414.8 2137.5196,-414.8 2137.5196,4 -4,4"/>
<!-- v0 -->
<g id="node1" class="node">
<title>v0</title>
<ellipse fill="none" stroke="#000000" cx="951.0796" cy="-246.6" rx="163.2712" ry="18"/>
<text text-anchor="middle" x="951.0796" y="-242.9" font-family="Times,serif" font-size="14.00" fill="#000000">GET_STRING_ID_DICT:dl_string_aliases</text>
</g>
<!-- v5 -->
<g id="node2" class="node">
<title>v5</title>
<ellipse fill="none" stroke="#000000" cx="1384.0796" cy="-159.6" rx="221.7607" ry="18"/>
<text text-anchor="middle" x="1384.0796" y="-155.9" font-family="Times,serif" font-size="14.00" fill="#000000">SER_THR_KINASES_PSSM:s_t_pssm_h5_alias_mapping</text>
</g>
<!-- v0&#45;&gt;v5 -->
<g id="edge1" class="edge">
<title>v0&#45;&gt;v5</title>
<path fill="none" stroke="#000000" d="M1029.7437,-230.7945C1103.2798,-216.0194 1213.1341,-193.947 1291.0025,-178.3014"/>
<polygon fill="#000000" stroke="#000000" points="1291.6983,-181.7316 1300.8129,-176.3303 1290.3193,-174.8688 1291.6983,-181.7316"/>
<text text-anchor="middle" x="1232.0796" y="-199.4" font-family="Times,serif" font-size="14.00" fill="#000000">string_id_dict</text>
</g>
<!-- v11 -->
<g id="node11" class="node">
<title>v11</title>
<ellipse fill="none" stroke="#000000" cx="445.0796" cy="-159.6" rx="195.7654" ry="18"/>
<text text-anchor="middle" x="445.0796" y="-155.9" font-family="Times,serif" font-size="14.00" fill="#000000">TYR_KINASES_PSSM:y_pssm_h5_alias_mapping</text>
</g>
<!-- v0&#45;&gt;v11 -->
<g id="edge12" class="edge">
<title>v0&#45;&gt;v11</title>
<path fill="none" stroke="#000000" d="M935.1881,-228.5466C923.2235,-215.4512 907.4934,-199.3971 899.0796,-195.6 848.5127,-172.7796 705.3804,-182.0264 650.0796,-177.6 632.2688,-176.1744 613.5931,-174.6188 595.0703,-173.0385"/>
<polygon fill="#000000" stroke="#000000" points="595.3664,-169.5511 585.1041,-172.1846 594.7688,-176.5255 595.3664,-169.5511"/>
<text text-anchor="middle" x="955.0796" y="-199.4" font-family="Times,serif" font-size="14.00" fill="#000000">string_id_dict</text>
</g>
<!-- v16 -->
<g id="node19" class="node">
<title>v16</title>
<ellipse fill="none" stroke="#000000" cx="1020.0796" cy="-159.6" rx="124.5782" ry="18"/>
<text text-anchor="middle" x="1020.0796" y="-155.9" font-family="Times,serif" font-size="14.00" fill="#000000">PSP:translate_kin_phos_clusters</text>
</g>
<!-- v0&#45;&gt;v16 -->
<g id="edge18" class="edge">
<title>v0&#45;&gt;v16</title>
<path fill="none" stroke="#000000" d="M979.5201,-228.5266C986.2129,-223.3291 992.8974,-217.2468 998.0796,-210.6 1003.475,-203.6797 1007.8145,-195.2351 1011.167,-187.2242"/>
<polygon fill="#000000" stroke="#000000" points="1014.4683,-188.39 1014.7714,-177.7995 1007.9301,-185.8894 1014.4683,-188.39"/>
<text text-anchor="middle" x="1045.0796" y="-199.4" font-family="Times,serif" font-size="14.00" fill="#000000">string_id_dict</text>
</g>
<!-- v20 -->
<g id="node7" class="node">
<title>v20</title>
<ellipse fill="none" stroke="#000000" cx="1302.0796" cy="-72.6" rx="262.6534" ry="18"/>
<text text-anchor="middle" x="1302.0796" y="-68.9" font-family="Times,serif" font-size="14.00" fill="#000000">S_T_PSSM_BACKGROUND_SCORES:s_t_pssm_background_scores</text>
</g>
<!-- v5&#45;&gt;v20 -->
<g id="edge6" class="edge">
<title>v5&#45;&gt;v20</title>
<path fill="none" stroke="#000000" d="M1367.0891,-141.5735C1355.2148,-128.9752 1339.1921,-111.9755 1326.025,-98.0055"/>
<polygon fill="#000000" stroke="#000000" points="1328.4542,-95.4799 1319.0483,-90.6034 1323.3602,-100.2811 1328.4542,-95.4799"/>
<text text-anchor="middle" x="1386.0796" y="-112.4" font-family="Times,serif" font-size="14.00" fill="#000000">pssm_dict_h5</text>
</g>
<!-- v6 -->
<g id="node8" class="node">
<title>v6</title>
<ellipse fill="#000000" stroke="#000000" cx="1584.0796" cy="-72.6" rx="1.8" ry="1.8"/>
</g>
<!-- v5&#45;&gt;v6 -->
<g id="edge7" class="edge">
<title>v5&#45;&gt;v6</title>
<path fill="none" stroke="#000000" d="M1468.4089,-142.8716C1504.0645,-132.4965 1544.1704,-116.1017 1574.0796,-90.6 1576.2014,-88.7909 1577.9586,-86.4131 1579.3764,-83.9813"/>
<polygon fill="#000000" stroke="#000000" points="1582.6892,-85.1416 1583.4964,-74.5775 1576.2775,-82.3324 1582.6892,-85.1416"/>
</g>
<!-- v1 -->
<g id="node3" class="node">
<title>v1</title>
<ellipse fill="none" stroke="#000000" cx="1625.0796" cy="-319.6" rx="265.3531" ry="18"/>
<text text-anchor="middle" x="1625.0796" y="-315.9" font-family="Times,serif" font-size="14.00" fill="#000000">SER_THR_KINASES_PSSM:get_ser_thr_kinome_2023_suppl_table_2</text>
</g>
<!-- v2 -->
<g id="node4" class="node">
<title>v2</title>
<ellipse fill="none" stroke="#000000" cx="1625.0796" cy="-246.6" rx="207.9631" ry="18"/>
<text text-anchor="middle" x="1625.0796" y="-242.9" font-family="Times,serif" font-size="14.00" fill="#000000">SER_THR_KINASES_PSSM:get_ser_thr_kinase_pssm</text>
</g>
<!-- v1&#45;&gt;v2 -->
<g id="edge2" class="edge">
<title>v1&#45;&gt;v2</title>
<path fill="none" stroke="#000000" d="M1625.0796,-301.5551C1625.0796,-293.4828 1625.0796,-283.7764 1625.0796,-274.7817"/>
<polygon fill="#000000" stroke="#000000" points="1628.5797,-274.6903 1625.0796,-264.6904 1621.5797,-274.6904 1628.5797,-274.6903"/>
</g>
<!-- v2&#45;&gt;v5 -->
<g id="edge3" class="edge">
<title>v2&#45;&gt;v5</title>
<path fill="none" stroke="#000000" d="M1576.3096,-228.9943C1537.6005,-215.0204 1483.3643,-195.4414 1442.367,-180.6415"/>
<polygon fill="#000000" stroke="#000000" points="1443.3713,-177.2831 1432.777,-177.1796 1440.9944,-183.8672 1443.3713,-177.2831"/>
</g>
<!-- v4 -->
<g id="node5" class="node">
<title>v4</title>
<ellipse fill="#000000" stroke="#000000" cx="1650.0796" cy="-159.6" rx="1.8" ry="1.8"/>
</g>
<!-- v2&#45;&gt;v4 -->
<g id="edge4" class="edge">
<title>v2&#45;&gt;v4</title>
<path fill="none" stroke="#000000" d="M1630.7771,-228.3161C1632.5136,-222.6481 1634.4051,-216.3746 1636.0796,-210.6 1639.9631,-197.207 1644.1662,-181.7551 1646.9428,-171.4011"/>
<polygon fill="#000000" stroke="#000000" points="1650.3746,-172.115 1649.5655,-161.5511 1643.6103,-170.3139 1650.3746,-172.115"/>
</g>
<!-- v3 -->
<g id="node6" class="node">
<title>v3</title>
<ellipse fill="#000000" stroke="#000000" cx="1625.0796" cy="-159.6" rx="1.8" ry="1.8"/>
</g>
<!-- v2&#45;&gt;v3 -->
<g id="edge5" class="edge">
<title>v2&#45;&gt;v3</title>
<path fill="none" stroke="#000000" d="M1625.0796,-228.5735C1625.0796,-211.502 1625.0796,-186.3487 1625.0796,-171.6035"/>
<polygon fill="#000000" stroke="#000000" points="1628.5797,-171.5185 1625.0796,-161.5185 1621.5797,-171.5185 1628.5797,-171.5185"/>
</g>
<!-- v22 -->
<g id="node23" class="node">
<title>v22</title>
<ellipse fill="#000000" stroke="#000000" cx="1276.0796" cy="-1.8" rx="1.8" ry="1.8"/>
</g>
<!-- v20&#45;&gt;v22 -->
<g id="edge22" class="edge">
<title>v20&#45;&gt;v22</title>
<path fill="none" stroke="#000000" d="M1291.8709,-54.2859C1289.0611,-48.7254 1286.2053,-42.5188 1284.0796,-36.6 1281.4236,-29.2049 1279.4366,-20.6018 1278.1071,-13.7997"/>
<polygon fill="#000000" stroke="#000000" points="1281.5181,-12.985 1276.3582,-3.7316 1274.6214,-14.1831 1281.5181,-12.985"/>
<text text-anchor="middle" x="1298.0796" y="-25.4" font-family="Times,serif" font-size="14.00" fill="#000000">tsvgz</text>
</g>
<!-- v21 -->
<g id="node24" class="node">
<title>v21</title>
<ellipse fill="#000000" stroke="#000000" cx="1327.0796" cy="-1.8" rx="1.8" ry="1.8"/>
</g>
<!-- v20&#45;&gt;v21 -->
<g id="edge23" class="edge">
<title>v20&#45;&gt;v21</title>
<path fill="none" stroke="#000000" d="M1308.5177,-54.3672C1313.093,-41.4099 1319.098,-24.4038 1323.0209,-13.2941"/>
<polygon fill="#000000" stroke="#000000" points="1326.4299,-14.1515 1326.4593,-3.5567 1319.8293,-11.8208 1326.4299,-14.1515"/>
<text text-anchor="middle" x="1327.0796" y="-25.4" font-family="Times,serif" font-size="14.00" fill="#000000">h5</text>
</g>
<!-- v7 -->
<g id="node9" class="node">
<title>v7</title>
<ellipse fill="none" stroke="#000000" cx="230.0796" cy="-319.6" rx="230.1592" ry="18"/>
<text text-anchor="middle" x="230.0796" y="-315.9" font-family="Times,serif" font-size="14.00" fill="#000000">TYR_KINASES_PSSM:get_tyr_kinome_2024_suppl_table_2</text>
</g>
<!-- v8 -->
<g id="node10" class="node">
<title>v8</title>
<ellipse fill="none" stroke="#000000" cx="230.0796" cy="-246.6" rx="172.7694" ry="18"/>
<text text-anchor="middle" x="230.0796" y="-242.9" font-family="Times,serif" font-size="14.00" fill="#000000">TYR_KINASES_PSSM:get_tyr_kinase_pssm</text>
</g>
<!-- v7&#45;&gt;v8 -->
<g id="edge8" class="edge">
<title>v7&#45;&gt;v8</title>
<path fill="none" stroke="#000000" d="M230.0796,-301.5551C230.0796,-293.4828 230.0796,-283.7764 230.0796,-274.7817"/>
<polygon fill="#000000" stroke="#000000" points="233.5797,-274.6903 230.0796,-264.6904 226.5797,-274.6904 233.5797,-274.6903"/>
</g>
<!-- v8&#45;&gt;v11 -->
<g id="edge9" class="edge">
<title>v8&#45;&gt;v11</title>
<path fill="none" stroke="#000000" d="M273.3294,-229.0989C307.5492,-215.2518 355.4887,-195.853 392.0265,-181.068"/>
<polygon fill="#000000" stroke="#000000" points="393.5737,-184.2177 401.5307,-177.2221 390.9479,-177.7288 393.5737,-184.2177"/>
</g>
<!-- v10 -->
<g id="node12" class="node">
<title>v10</title>
<ellipse fill="#000000" stroke="#000000" cx="230.0796" cy="-159.6" rx="1.8" ry="1.8"/>
</g>
<!-- v8&#45;&gt;v10 -->
<g id="edge10" class="edge">
<title>v8&#45;&gt;v10</title>
<path fill="none" stroke="#000000" d="M230.0796,-228.5735C230.0796,-211.502 230.0796,-186.3487 230.0796,-171.6035"/>
<polygon fill="#000000" stroke="#000000" points="233.5797,-171.5185 230.0796,-161.5185 226.5797,-171.5185 233.5797,-171.5185"/>
</g>
<!-- v9 -->
<g id="node13" class="node">
<title>v9</title>
<ellipse fill="#000000" stroke="#000000" cx="205.0796" cy="-159.6" rx="1.8" ry="1.8"/>
</g>
<!-- v8&#45;&gt;v9 -->
<g id="edge11" class="edge">
<title>v8&#45;&gt;v9</title>
<path fill="none" stroke="#000000" d="M224.8996,-228.5735C219.9439,-211.3278 212.6182,-185.8345 208.4001,-171.1554"/>
<polygon fill="#000000" stroke="#000000" points="211.7566,-170.1629 205.6309,-161.5185 205.0289,-172.0962 211.7566,-170.1629"/>
</g>
<!-- v23 -->
<g id="node14" class="node">
<title>v23</title>
<ellipse fill="none" stroke="#000000" cx="700.0796" cy="-72.6" rx="248.0561" ry="18"/>
<text text-anchor="middle" x="700.0796" y="-68.9" font-family="Times,serif" font-size="14.00" fill="#000000">Y_PSSM_BACKGROUND_SCORES:y_pssm_background_scores</text>
</g>
<!-- v11&#45;&gt;v23 -->
<g id="edge13" class="edge">
<title>v11&#45;&gt;v23</title>
<path fill="none" stroke="#000000" d="M496.0698,-142.2033C537.1473,-128.1887 595.0381,-108.4377 638.6637,-93.5537"/>
<polygon fill="#000000" stroke="#000000" points="639.9696,-96.8063 648.3037,-90.2647 637.7092,-90.1813 639.9696,-96.8063"/>
<text text-anchor="middle" x="626.0796" y="-112.4" font-family="Times,serif" font-size="14.00" fill="#000000">pssm_dict_h5</text>
</g>
<!-- v12 -->
<g id="node15" class="node">
<title>v12</title>
<ellipse fill="#000000" stroke="#000000" cx="432.0796" cy="-72.6" rx="1.8" ry="1.8"/>
</g>
<!-- v11&#45;&gt;v12 -->
<g id="edge14" class="edge">
<title>v11&#45;&gt;v12</title>
<path fill="none" stroke="#000000" d="M442.386,-141.5735C439.8351,-124.502 436.0765,-99.3487 433.8732,-84.6035"/>
<polygon fill="#000000" stroke="#000000" points="437.3058,-83.8914 432.3663,-74.5185 430.3826,-84.926 437.3058,-83.8914"/>
</g>
<!-- v25 -->
<g id="node25" class="node">
<title>v25</title>
<ellipse fill="#000000" stroke="#000000" cx="674.0796" cy="-1.8" rx="1.8" ry="1.8"/>
</g>
<!-- v23&#45;&gt;v25 -->
<g id="edge25" class="edge">
<title>v23&#45;&gt;v25</title>
<path fill="none" stroke="#000000" d="M689.8709,-54.2859C687.0611,-48.7254 684.2053,-42.5188 682.0796,-36.6 679.4236,-29.2049 677.4366,-20.6018 676.1071,-13.7997"/>
<polygon fill="#000000" stroke="#000000" points="679.5181,-12.985 674.3582,-3.7316 672.6214,-14.1831 679.5181,-12.985"/>
<text text-anchor="middle" x="696.0796" y="-25.4" font-family="Times,serif" font-size="14.00" fill="#000000">tsvgz</text>
</g>
<!-- v24 -->
<g id="node26" class="node">
<title>v24</title>
<ellipse fill="#000000" stroke="#000000" cx="725.0796" cy="-1.8" rx="1.8" ry="1.8"/>
</g>
<!-- v23&#45;&gt;v24 -->
<g id="edge26" class="edge">
<title>v23&#45;&gt;v24</title>
<path fill="none" stroke="#000000" d="M706.5177,-54.3672C711.093,-41.4099 717.098,-24.4038 721.0209,-13.2941"/>
<polygon fill="#000000" stroke="#000000" points="724.4299,-14.1515 724.4593,-3.5567 717.8293,-11.8208 724.4299,-14.1515"/>
<text text-anchor="middle" x="725.0796" y="-25.4" font-family="Times,serif" font-size="14.00" fill="#000000">h5</text>
</g>
<!-- v13 -->
<g id="node16" class="node">
<title>v13</title>
<ellipse fill="#000000" stroke="#000000" cx="1223.0796" cy="-392.2" rx="3.6" ry="3.6"/>
</g>
<!-- v14 -->
<g id="node17" class="node">
<title>v14</title>
<ellipse fill="none" stroke="#000000" cx="1223.0796" cy="-319.6" rx="105.8812" ry="18"/>
<text text-anchor="middle" x="1223.0796" y="-315.9" font-family="Times,serif" font-size="14.00" fill="#000000">PSP:psp_kinase_substrates</text>
</g>
<!-- v13&#45;&gt;v14 -->
<g id="edge15" class="edge">
<title>v13&#45;&gt;v14</title>
<path fill="none" stroke="#000000" d="M1223.0796,-388.2967C1223.0796,-380.6869 1223.0796,-363.2632 1223.0796,-347.8684"/>
<polygon fill="#000000" stroke="#000000" points="1226.5797,-347.6802 1223.0796,-337.6802 1219.5797,-347.6802 1226.5797,-347.6802"/>
<text text-anchor="middle" x="1307.5796" y="-359.4" font-family="Times,serif" font-size="14.00" fill="#000000">input/psp_kinase_substrates.gz</text>
</g>
<!-- v15 -->
<g id="node18" class="node">
<title>v15</title>
<ellipse fill="none" stroke="#000000" cx="1223.0796" cy="-246.6" rx="90.9839" ry="18"/>
<text text-anchor="middle" x="1223.0796" y="-242.9" font-family="Times,serif" font-size="14.00" fill="#000000">PSP:kin_phos_clusters</text>
</g>
<!-- v14&#45;&gt;v15 -->
<g id="edge16" class="edge">
<title>v14&#45;&gt;v15</title>
<path fill="none" stroke="#000000" d="M1223.0796,-301.5551C1223.0796,-293.4828 1223.0796,-283.7764 1223.0796,-274.7817"/>
<polygon fill="#000000" stroke="#000000" points="1226.5797,-274.6903 1223.0796,-264.6904 1219.5797,-274.6904 1226.5797,-274.6903"/>
</g>
<!-- v15&#45;&gt;v16 -->
<g id="edge17" class="edge">
<title>v15&#45;&gt;v16</title>
<path fill="none" stroke="#000000" d="M1220.4477,-228.4566C1217.8837,-217.3581 1212.8625,-203.7677 1203.0796,-195.6 1195.7603,-189.4892 1156.4351,-181.3805 1116.1059,-174.406"/>
<polygon fill="#000000" stroke="#000000" points="1116.573,-170.9352 1106.1271,-172.7057 1115.3971,-177.8357 1116.573,-170.9352"/>
</g>
<!-- v17 -->
<g id="node20" class="node">
<title>v17</title>
<ellipse fill="#000000" stroke="#000000" cx="1020.0796" cy="-72.6" rx="1.8" ry="1.8"/>
</g>
<!-- v16&#45;&gt;v17 -->
<g id="edge19" class="edge">
<title>v16&#45;&gt;v17</title>
<path fill="none" stroke="#000000" d="M1020.0796,-141.5735C1020.0796,-124.502 1020.0796,-99.3487 1020.0796,-84.6035"/>
<polygon fill="#000000" stroke="#000000" points="1023.5797,-84.5185 1020.0796,-74.5185 1016.5797,-84.5185 1023.5797,-84.5185"/>
<text text-anchor="middle" x="1078.0796" y="-112.4" font-family="Times,serif" font-size="14.00" fill="#000000">psp_kin_sub_clusters</text>
</g>
<!-- v18 -->
<g id="node21" class="node">
<title>v18</title>
<ellipse fill="#000000" stroke="#000000" cx="692.0796" cy="-246.6" rx="3.6" ry="3.6"/>
</g>
<!-- v19 -->
<g id="node22" class="node">
<title>v19</title>
<ellipse fill="none" stroke="#000000" cx="762.0796" cy="-159.6" rx="103.1819" ry="18"/>
<text text-anchor="middle" x="762.0796" y="-155.9" font-family="Times,serif" font-size="14.00" fill="#000000">PSP:hs_phosphoproteome</text>
</g>
<!-- v18&#45;&gt;v19 -->
<g id="edge20" class="edge">
<title>v18&#45;&gt;v19</title>
<path fill="none" stroke="#000000" d="M691.0087,-243.0429C688.5787,-234.2241 683.5636,-210.9566 693.0796,-195.6 696.4891,-190.0979 701.0389,-185.3943 706.1827,-181.3831"/>
<polygon fill="#000000" stroke="#000000" points="708.3566,-184.1381 714.6764,-175.6345 704.4331,-178.341 708.3566,-184.1381"/>
<text text-anchor="middle" x="796.0796" y="-199.4" font-family="Times,serif" font-size="14.00" fill="#000000">input/Phosphorylation_site_dataset.gz</text>
</g>
<!-- v19&#45;&gt;v20 -->
<g id="edge21" class="edge">
<title>v19&#45;&gt;v20</title>
<path fill="none" stroke="#000000" d="M797.6422,-142.5752C825.8185,-129.3755 863.0229,-112.6655 879.0796,-108.6 901.9841,-102.8007 1008.0733,-93.7787 1108.2663,-86.2176"/>
<polygon fill="#000000" stroke="#000000" points="1108.543,-89.7068 1118.2526,-85.4673 1108.0185,-82.7265 1108.543,-89.7068"/>
<text text-anchor="middle" x="947.5796" y="-112.4" font-family="Times,serif" font-size="14.00" fill="#000000">human_phosphosites_tsv</text>
</g>
<!-- v19&#45;&gt;v23 -->
<g id="edge24" class="edge">
<title>v19&#45;&gt;v23</title>
<path fill="none" stroke="#000000" d="M720.6945,-143.0025C712.8927,-137.9513 705.731,-131.5639 701.0796,-123.6 697.1491,-116.8706 695.8027,-108.7413 695.7282,-100.9697"/>
<polygon fill="#000000" stroke="#000000" points="699.2353,-100.9365 696.2918,-90.7588 692.2459,-100.5507 699.2353,-100.9365"/>
<text text-anchor="middle" x="769.5796" y="-112.4" font-family="Times,serif" font-size="14.00" fill="#000000">human_phosphosites_tsv</text>
</g>
<!-- v26 -->
<g id="node27" class="node">
<title>v26</title>
<ellipse fill="#000000" stroke="#000000" cx="1982.0796" cy="-392.2" rx="3.6" ry="3.6"/>
<text text-anchor="middle" x="1928.4796" y="-399.6" font-family="Times,serif" font-size="14.00" fill="#000000">Channel.fromPath</text>
</g>
<!-- v28 -->
<g id="node28" class="node">
<title>v28</title>
<ellipse fill="none" stroke="#000000" cx="2021.0796" cy="-319.6" rx="112.3801" ry="18"/>
<text text-anchor="middle" x="2021.0796" y="-315.9" font-family="Times,serif" font-size="14.00" fill="#000000">PUBLISH_CONFIG:publish</text>
</g>
<!-- v26&#45;&gt;v28 -->
<g id="edge27" class="edge">
<title>v26&#45;&gt;v28</title>
<path fill="none" stroke="#000000" d="M1981.1621,-388.5767C1979.633,-381.7754 1977.1865,-366.7758 1982.0796,-355.6 1983.7842,-351.7066 1986.1407,-348.0476 1988.8587,-344.6648"/>
<polygon fill="#000000" stroke="#000000" points="1991.4692,-346.9972 1995.7204,-337.2927 1986.3452,-342.228 1991.4692,-346.9972"/>
<text text-anchor="middle" x="2009.0796" y="-359.4" font-family="Times,serif" font-size="14.00" fill="#000000">config_ch</text>
</g>
<!-- v29 -->
<g id="node30" class="node">
<title>v29</title>
<ellipse fill="#000000" stroke="#000000" cx="2021.0796" cy="-246.6" rx="1.8" ry="1.8"/>
</g>
<!-- v28&#45;&gt;v29 -->
<g id="edge29" class="edge">
<title>v28&#45;&gt;v29</title>
<path fill="none" stroke="#000000" d="M2021.0796,-301.5551C2021.0796,-288.2025 2021.0796,-270.3784 2021.0796,-258.701"/>
<polygon fill="#000000" stroke="#000000" points="2024.5797,-258.4525 2021.0796,-248.4525 2017.5797,-258.4525 2024.5797,-258.4525"/>
</g>
<!-- v27 -->
<g id="node29" class="node">
<title>v27</title>
<ellipse fill="#000000" stroke="#000000" cx="2059.0796" cy="-392.2" rx="3.6" ry="3.6"/>
<text text-anchor="middle" x="2024.9796" y="-399.6" font-family="Times,serif" font-size="14.00" fill="#000000">Channel.of</text>
</g>
<!-- v27&#45;&gt;v28 -->
<g id="edge28" class="edge">
<title>v27&#45;&gt;v28</title>
<path fill="none" stroke="#000000" d="M2057.2468,-388.6984C2053.281,-381.1216 2043.5867,-362.6005 2035.2323,-346.6392"/>
<polygon fill="#000000" stroke="#000000" points="2038.26,-344.876 2030.5217,-337.6393 2032.0581,-348.1222 2038.26,-344.876"/>
<text text-anchor="middle" x="2065.0796" y="-359.4" font-family="Times,serif" font-size="14.00" fill="#000000">val_ch</text>
</g>
</g>
</svg>
