<?xml version="1.0" encoding="UTF-8" standalone="no"?>
<!DOCTYPE svg PUBLIC "-//W3C//DTD SVG 1.1//EN"
 "http://www.w3.org/Graphics/SVG/1.1/DTD/svg11.dtd">
<!-- Generated by graphviz version 2.40.1 (0)
 -->
<!-- Title: flowchart Pages: 1 -->
<svg width="2217pt" height="419pt"
 viewBox="0.00 0.00 2216.52 418.80" xmlns="http://www.w3.org/2000/svg" xmlns:xlink="http://www.w3.org/1999/xlink">
<g id="graph0" class="graph" transform="scale(1 1) rotate(0) translate(4 414.8)">
<title>flowchart</title>
<polygon fill="#ffffff" stroke="transparent" points="-4,4 -4,-414.8 2212.5196,-414.8 2212.5196,4 -4,4"/>
<!-- v0 -->
<g id="node1" class="node">
<title>v0</title>
<ellipse fill="none" stroke="#000000" cx="1026.0796" cy="-246.6" rx="163.2712" ry="18"/>
<text text-anchor="middle" x="1026.0796" y="-242.9" font-family="Times,serif" font-size="14.00" fill="#000000">GET_STRING_ID_DICT:dl_string_aliases</text>
</g>
<!-- v5 -->
<g id="node2" class="node">
<title>v5</title>
<ellipse fill="none" stroke="#000000" cx="1459.0796" cy="-159.6" rx="221.7607" ry="18"/>
<text text-anchor="middle" x="1459.0796" y="-155.9" font-family="Times,serif" font-size="14.00" fill="#000000">SER_THR_KINASES_PSSM:s_t_pssm_h5_alias_mapping</text>
</g>
<!-- v0&#45;&gt;v5 -->
<g id="edge1" class="edge">
<title>v0&#45;&gt;v5</title>
<path fill="none" stroke="#000000" d="M1104.7437,-230.7945C1178.2798,-216.0194 1288.1341,-193.947 1366.0025,-178.3014"/>
<polygon fill="#000000" stroke="#000000" points="1366.6983,-181.7316 1375.8129,-176.3303 1365.3193,-174.8688 1366.6983,-181.7316"/>
<text text-anchor="middle" x="1307.0796" y="-199.4" font-family="Times,serif" font-size="14.00" fill="#000000">string_id_dict</text>
</g>
<!-- v12 -->
<g id="node12" class="node">
<title>v12</title>
<ellipse fill="none" stroke="#000000" cx="445.0796" cy="-159.6" rx="195.7654" ry="18"/>
<text text-anchor="middle" x="445.0796" y="-155.9" font-family="Times,serif" font-size="14.00" fill="#000000">TYR_KINASES_PSSM:y_pssm_h5_alias_mapping</text>
</g>
<!-- v0&#45;&gt;v12 -->
<g id="edge13" class="edge">
<title>v0&#45;&gt;v12</title>
<path fill="none" stroke="#000000" d="M993.2051,-228.8205C983.1135,-223.173 972.0451,-216.7843 962.0796,-210.6 952.0242,-204.36 951.2745,-199.4371 940.0796,-195.6 878.9994,-174.6646 714.4676,-182.4242 650.0796,-177.6 631.9597,-176.2424 612.9484,-174.7137 594.1149,-173.1356"/>
<polygon fill="#000000" stroke="#000000" points="594.2428,-169.6341 583.9838,-172.2807 593.6541,-176.6093 594.2428,-169.6341"/>
<text text-anchor="middle" x="1000.0796" y="-199.4" font-family="Times,serif" font-size="14.00" fill="#000000">string_id_dict</text>
</g>
<!-- v18 -->
<g id="node21" class="node">
<title>v18</title>
<ellipse fill="none" stroke="#000000" cx="1061.0796" cy="-159.6" rx="124.5782" ry="18"/>
<text text-anchor="middle" x="1061.0796" y="-155.9" font-family="Times,serif" font-size="14.00" fill="#000000">PSP:translate_kin_phos_clusters</text>
</g>
<!-- v0&#45;&gt;v18 -->
<g id="edge20" class="edge">
<title>v0&#45;&gt;v18</title>
<path fill="none" stroke="#000000" d="M1033.3316,-228.5735C1038.1653,-216.5585 1044.6094,-200.5401 1050.0709,-186.9646"/>
<polygon fill="#000000" stroke="#000000" points="1053.3516,-188.1871 1053.8369,-177.6034 1046.8574,-185.5744 1053.3516,-188.1871"/>
<text text-anchor="middle" x="1084.0796" y="-199.4" font-family="Times,serif" font-size="14.00" fill="#000000">string_id_dict</text>
</g>
<!-- v22 -->
<g id="node7" class="node">
<title>v22</title>
<ellipse fill="none" stroke="#000000" cx="1289.0796" cy="-72.6" rx="262.6534" ry="18"/>
<text text-anchor="middle" x="1289.0796" y="-68.9" font-family="Times,serif" font-size="14.00" fill="#000000">S_T_PSSM_BACKGROUND_SCORES:s_t_pssm_background_scores</text>
</g>
<!-- v5&#45;&gt;v22 -->
<g id="edge6" class="edge">
<title>v5&#45;&gt;v22</title>
<path fill="none" stroke="#000000" d="M1424.2673,-141.7843C1397.8835,-128.282 1361.4489,-109.6361 1333.0516,-95.1033"/>
<polygon fill="#000000" stroke="#000000" points="1334.6335,-91.9812 1324.137,-90.5411 1331.4445,-98.2126 1334.6335,-91.9812"/>
<text text-anchor="middle" x="1423.0796" y="-112.4" font-family="Times,serif" font-size="14.00" fill="#000000">pssm_dict_h5</text>
</g>
<!-- v7 -->
<g id="node8" class="node">
<title>v7</title>
<ellipse fill="#000000" stroke="#000000" cx="1571.0796" cy="-72.6" rx="1.8" ry="1.8"/>
</g>
<!-- v5&#45;&gt;v7 -->
<g id="edge7" class="edge">
<title>v5&#45;&gt;v7</title>
<path fill="none" stroke="#000000" d="M1493.7916,-141.6419C1515.0926,-129.373 1541.8734,-111.5681 1561.0796,-90.6 1562.963,-88.5438 1564.627,-86.0696 1566.0306,-83.623"/>
<polygon fill="#000000" stroke="#000000" points="1569.2525,-84.9975 1570.3864,-74.4635 1562.9309,-81.9912 1569.2525,-84.9975"/>
</g>
<!-- v6 -->
<g id="node9" class="node">
<title>v6</title>
<ellipse fill="#000000" stroke="#000000" cx="1594.0796" cy="-72.6" rx="1.8" ry="1.8"/>
</g>
<!-- v5&#45;&gt;v6 -->
<g id="edge8" class="edge">
<title>v5&#45;&gt;v6</title>
<path fill="none" stroke="#000000" d="M1510.9268,-142.0881C1523.2202,-136.9469 1535.9773,-130.75 1547.0796,-123.6 1565.0541,-112.0241 1568.2836,-106.9327 1582.0796,-90.6 1584.0427,-88.276 1585.9649,-85.6206 1587.6755,-83.0762"/>
<polygon fill="#000000" stroke="#000000" points="1590.774,-84.7211 1593.0771,-74.3796 1584.8276,-81.0277 1590.774,-84.7211"/>
</g>
<!-- v1 -->
<g id="node3" class="node">
<title>v1</title>
<ellipse fill="none" stroke="#000000" cx="1700.0796" cy="-319.6" rx="265.3531" ry="18"/>
<text text-anchor="middle" x="1700.0796" y="-315.9" font-family="Times,serif" font-size="14.00" fill="#000000">SER_THR_KINASES_PSSM:get_ser_thr_kinome_2023_suppl_table_2</text>
</g>
<!-- v2 -->
<g id="node4" class="node">
<title>v2</title>
<ellipse fill="none" stroke="#000000" cx="1700.0796" cy="-246.6" rx="207.9631" ry="18"/>
<text text-anchor="middle" x="1700.0796" y="-242.9" font-family="Times,serif" font-size="14.00" fill="#000000">SER_THR_KINASES_PSSM:get_ser_thr_kinase_pssm</text>
</g>
<!-- v1&#45;&gt;v2 -->
<g id="edge2" class="edge">
<title>v1&#45;&gt;v2</title>
<path fill="none" stroke="#000000" d="M1700.0796,-301.5551C1700.0796,-293.4828 1700.0796,-283.7764 1700.0796,-274.7817"/>
<polygon fill="#000000" stroke="#000000" points="1703.5797,-274.6903 1700.0796,-264.6904 1696.5797,-274.6904 1703.5797,-274.6903"/>
</g>
<!-- v2&#45;&gt;v5 -->
<g id="edge3" class="edge">
<title>v2&#45;&gt;v5</title>
<path fill="none" stroke="#000000" d="M1651.3096,-228.9943C1612.6005,-215.0204 1558.3643,-195.4414 1517.367,-180.6415"/>
<polygon fill="#000000" stroke="#000000" points="1518.3713,-177.2831 1507.777,-177.1796 1515.9944,-183.8672 1518.3713,-177.2831"/>
</g>
<!-- v4 -->
<g id="node5" class="node">
<title>v4</title>
<ellipse fill="#000000" stroke="#000000" cx="1725.0796" cy="-159.6" rx="1.8" ry="1.8"/>
</g>
<!-- v2&#45;&gt;v4 -->
<g id="edge4" class="edge">
<title>v2&#45;&gt;v4</title>
<path fill="none" stroke="#000000" d="M1705.7771,-228.3161C1707.5136,-222.6481 1709.4051,-216.3746 1711.0796,-210.6 1714.9631,-197.207 1719.1662,-181.7551 1721.9428,-171.4011"/>
<polygon fill="#000000" stroke="#000000" points="1725.3746,-172.115 1724.5655,-161.5511 1718.6103,-170.3139 1725.3746,-172.115"/>
</g>
<!-- v3 -->
<g id="node6" class="node">
<title>v3</title>
<ellipse fill="#000000" stroke="#000000" cx="1700.0796" cy="-159.6" rx="1.8" ry="1.8"/>
</g>
<!-- v2&#45;&gt;v3 -->
<g id="edge5" class="edge">
<title>v2&#45;&gt;v3</title>
<path fill="none" stroke="#000000" d="M1700.0796,-228.5735C1700.0796,-211.502 1700.0796,-186.3487 1700.0796,-171.6035"/>
<polygon fill="#000000" stroke="#000000" points="1703.5797,-171.5185 1700.0796,-161.5185 1696.5797,-171.5185 1703.5797,-171.5185"/>
</g>
<!-- v24 -->
<g id="node25" class="node">
<title>v24</title>
<ellipse fill="#000000" stroke="#000000" cx="1263.0796" cy="-1.8" rx="1.8" ry="1.8"/>
</g>
<!-- v22&#45;&gt;v24 -->
<g id="edge24" class="edge">
<title>v22&#45;&gt;v24</title>
<path fill="none" stroke="#000000" d="M1278.8709,-54.2859C1276.0611,-48.7254 1273.2053,-42.5188 1271.0796,-36.6 1268.4236,-29.2049 1266.4366,-20.6018 1265.1071,-13.7997"/>
<polygon fill="#000000" stroke="#000000" points="1268.5181,-12.985 1263.3582,-3.7316 1261.6214,-14.1831 1268.5181,-12.985"/>
<text text-anchor="middle" x="1285.0796" y="-25.4" font-family="Times,serif" font-size="14.00" fill="#000000">tsvgz</text>
</g>
<!-- v23 -->
<g id="node26" class="node">
<title>v23</title>
<ellipse fill="#000000" stroke="#000000" cx="1314.0796" cy="-1.8" rx="1.8" ry="1.8"/>
</g>
<!-- v22&#45;&gt;v23 -->
<g id="edge25" class="edge">
<title>v22&#45;&gt;v23</title>
<path fill="none" stroke="#000000" d="M1295.5177,-54.3672C1300.093,-41.4099 1306.098,-24.4038 1310.0209,-13.2941"/>
<polygon fill="#000000" stroke="#000000" points="1313.4299,-14.1515 1313.4593,-3.5567 1306.8293,-11.8208 1313.4299,-14.1515"/>
<text text-anchor="middle" x="1314.0796" y="-25.4" font-family="Times,serif" font-size="14.00" fill="#000000">h5</text>
</g>
<!-- v8 -->
<g id="node10" class="node">
<title>v8</title>
<ellipse fill="none" stroke="#000000" cx="230.0796" cy="-319.6" rx="230.1592" ry="18"/>
<text text-anchor="middle" x="230.0796" y="-315.9" font-family="Times,serif" font-size="14.00" fill="#000000">TYR_KINASES_PSSM:get_tyr_kinome_2024_suppl_table_2</text>
</g>
<!-- v9 -->
<g id="node11" class="node">
<title>v9</title>
<ellipse fill="none" stroke="#000000" cx="230.0796" cy="-246.6" rx="172.7694" ry="18"/>
<text text-anchor="middle" x="230.0796" y="-242.9" font-family="Times,serif" font-size="14.00" fill="#000000">TYR_KINASES_PSSM:get_tyr_kinase_pssm</text>
</g>
<!-- v8&#45;&gt;v9 -->
<g id="edge9" class="edge">
<title>v8&#45;&gt;v9</title>
<path fill="none" stroke="#000000" d="M230.0796,-301.5551C230.0796,-293.4828 230.0796,-283.7764 230.0796,-274.7817"/>
<polygon fill="#000000" stroke="#000000" points="233.5797,-274.6903 230.0796,-264.6904 226.5797,-274.6904 233.5797,-274.6903"/>
</g>
<!-- v9&#45;&gt;v12 -->
<g id="edge10" class="edge">
<title>v9&#45;&gt;v12</title>
<path fill="none" stroke="#000000" d="M273.3294,-229.0989C307.5492,-215.2518 355.4887,-195.853 392.0265,-181.068"/>
<polygon fill="#000000" stroke="#000000" points="393.5737,-184.2177 401.5307,-177.2221 390.9479,-177.7288 393.5737,-184.2177"/>
</g>
<!-- v11 -->
<g id="node13" class="node">
<title>v11</title>
<ellipse fill="#000000" stroke="#000000" cx="230.0796" cy="-159.6" rx="1.8" ry="1.8"/>
</g>
<!-- v9&#45;&gt;v11 -->
<g id="edge11" class="edge">
<title>v9&#45;&gt;v11</title>
<path fill="none" stroke="#000000" d="M230.0796,-228.5735C230.0796,-211.502 230.0796,-186.3487 230.0796,-171.6035"/>
<polygon fill="#000000" stroke="#000000" points="233.5797,-171.5185 230.0796,-161.5185 226.5797,-171.5185 233.5797,-171.5185"/>
</g>
<!-- v10 -->
<g id="node14" class="node">
<title>v10</title>
<ellipse fill="#000000" stroke="#000000" cx="205.0796" cy="-159.6" rx="1.8" ry="1.8"/>
</g>
<!-- v9&#45;&gt;v10 -->
<g id="edge12" class="edge">
<title>v9&#45;&gt;v10</title>
<path fill="none" stroke="#000000" d="M224.8996,-228.5735C219.9439,-211.3278 212.6182,-185.8345 208.4001,-171.1554"/>
<polygon fill="#000000" stroke="#000000" points="211.7566,-170.1629 205.6309,-161.5185 205.0289,-172.0962 211.7566,-170.1629"/>
</g>
<!-- v25 -->
<g id="node15" class="node">
<title>v25</title>
<ellipse fill="none" stroke="#000000" cx="713.0796" cy="-72.6" rx="248.0561" ry="18"/>
<text text-anchor="middle" x="713.0796" y="-68.9" font-family="Times,serif" font-size="14.00" fill="#000000">Y_PSSM_BACKGROUND_SCORES:y_pssm_background_scores</text>
</g>
<!-- v12&#45;&gt;v25 -->
<g id="edge14" class="edge">
<title>v12&#45;&gt;v25</title>
<path fill="none" stroke="#000000" d="M498.6693,-142.2033C542.0223,-128.1298 603.1946,-108.2716 649.1098,-93.3663"/>
<polygon fill="#000000" stroke="#000000" points="650.2335,-96.6814 658.6642,-90.2647 648.0721,-90.0234 650.2335,-96.6814"/>
<text text-anchor="middle" x="634.0796" y="-112.4" font-family="Times,serif" font-size="14.00" fill="#000000">pssm_dict_h5</text>
</g>
<!-- v14 -->
<g id="node16" class="node">
<title>v14</title>
<ellipse fill="#000000" stroke="#000000" cx="420.0796" cy="-72.6" rx="1.8" ry="1.8"/>
</g>
<!-- v12&#45;&gt;v14 -->
<g id="edge15" class="edge">
<title>v12&#45;&gt;v14</title>
<path fill="none" stroke="#000000" d="M439.8996,-141.5735C434.9439,-124.3278 427.6182,-98.8345 423.4001,-84.1554"/>
<polygon fill="#000000" stroke="#000000" points="426.7566,-83.1629 420.6309,-74.5185 420.0289,-85.0962 426.7566,-83.1629"/>
</g>
<!-- v13 -->
<g id="node17" class="node">
<title>v13</title>
<ellipse fill="#000000" stroke="#000000" cx="445.0796" cy="-72.6" rx="1.8" ry="1.8"/>
</g>
<!-- v12&#45;&gt;v13 -->
<g id="edge16" class="edge">
<title>v12&#45;&gt;v13</title>
<path fill="none" stroke="#000000" d="M445.0796,-141.5735C445.0796,-124.502 445.0796,-99.3487 445.0796,-84.6035"/>
<polygon fill="#000000" stroke="#000000" points="448.5797,-84.5185 445.0796,-74.5185 441.5797,-84.5185 448.5797,-84.5185"/>
</g>
<!-- v27 -->
<g id="node27" class="node">
<title>v27</title>
<ellipse fill="#000000" stroke="#000000" cx="687.0796" cy="-1.8" rx="1.8" ry="1.8"/>
</g>
<!-- v25&#45;&gt;v27 -->
<g id="edge27" class="edge">
<title>v25&#45;&gt;v27</title>
<path fill="none" stroke="#000000" d="M702.8709,-54.2859C700.0611,-48.7254 697.2053,-42.5188 695.0796,-36.6 692.4236,-29.2049 690.4366,-20.6018 689.1071,-13.7997"/>
<polygon fill="#000000" stroke="#000000" points="692.5181,-12.985 687.3582,-3.7316 685.6214,-14.1831 692.5181,-12.985"/>
<text text-anchor="middle" x="709.0796" y="-25.4" font-family="Times,serif" font-size="14.00" fill="#000000">tsvgz</text>
</g>
<!-- v26 -->
<g id="node28" class="node">
<title>v26</title>
<ellipse fill="#000000" stroke="#000000" cx="738.0796" cy="-1.8" rx="1.8" ry="1.8"/>
</g>
<!-- v25&#45;&gt;v26 -->
<g id="edge28" class="edge">
<title>v25&#45;&gt;v26</title>
<path fill="none" stroke="#000000" d="M719.5177,-54.3672C724.093,-41.4099 730.098,-24.4038 734.0209,-13.2941"/>
<polygon fill="#000000" stroke="#000000" points="737.4299,-14.1515 737.4593,-3.5567 730.8293,-11.8208 737.4299,-14.1515"/>
<text text-anchor="middle" x="738.0796" y="-25.4" font-family="Times,serif" font-size="14.00" fill="#000000">h5</text>
</g>
<!-- v15 -->
<g id="node18" class="node">
<title>v15</title>
<ellipse fill="#000000" stroke="#000000" cx="1298.0796" cy="-392.2" rx="3.6" ry="3.6"/>
</g>
<!-- v16 -->
<g id="node19" class="node">
<title>v16</title>
<ellipse fill="none" stroke="#000000" cx="1298.0796" cy="-319.6" rx="105.8812" ry="18"/>
<text text-anchor="middle" x="1298.0796" y="-315.9" font-family="Times,serif" font-size="14.00" fill="#000000">PSP:psp_kinase_substrates</text>
</g>
<!-- v15&#45;&gt;v16 -->
<g id="edge17" class="edge">
<title>v15&#45;&gt;v16</title>
<path fill="none" stroke="#000000" d="M1298.0796,-388.2967C1298.0796,-380.6869 1298.0796,-363.2632 1298.0796,-347.8684"/>
<polygon fill="#000000" stroke="#000000" points="1301.5797,-347.6802 1298.0796,-337.6802 1294.5797,-347.6802 1301.5797,-347.6802"/>
<text text-anchor="middle" x="1382.5796" y="-359.4" font-family="Times,serif" font-size="14.00" fill="#000000">input/psp_kinase_substrates.gz</text>
</g>
<!-- v17 -->
<g id="node20" class="node">
<title>v17</title>
<ellipse fill="none" stroke="#000000" cx="1298.0796" cy="-246.6" rx="90.9839" ry="18"/>
<text text-anchor="middle" x="1298.0796" y="-242.9" font-family="Times,serif" font-size="14.00" fill="#000000">PSP:kin_phos_clusters</text>
</g>
<!-- v16&#45;&gt;v17 -->
<g id="edge18" class="edge">
<title>v16&#45;&gt;v17</title>
<path fill="none" stroke="#000000" d="M1298.0796,-301.5551C1298.0796,-293.4828 1298.0796,-283.7764 1298.0796,-274.7817"/>
<polygon fill="#000000" stroke="#000000" points="1301.5797,-274.6903 1298.0796,-264.6904 1294.5797,-274.6904 1301.5797,-274.6903"/>
</g>
<!-- v17&#45;&gt;v18 -->
<g id="edge19" class="edge">
<title>v17&#45;&gt;v18</title>
<path fill="none" stroke="#000000" d="M1286.5538,-228.7207C1278.3182,-217.4364 1266.2195,-203.539 1252.0796,-195.6 1236.4807,-186.8419 1201.0376,-179.163 1164.8646,-173.1717"/>
<polygon fill="#000000" stroke="#000000" points="1165.088,-169.6626 1154.6585,-171.5271 1163.9744,-176.5735 1165.088,-169.6626"/>
</g>
<!-- v19 -->
<g id="node22" class="node">
<title>v19</title>
<ellipse fill="#000000" stroke="#000000" cx="1007.0796" cy="-72.6" rx="1.8" ry="1.8"/>
</g>
<!-- v18&#45;&gt;v19 -->
<g id="edge21" class="edge">
<title>v18&#45;&gt;v19</title>
<path fill="none" stroke="#000000" d="M1049.1967,-141.627C1040.165,-127.8103 1027.5522,-108.1752 1017.0796,-90.6 1015.6522,-88.2046 1014.1663,-85.5979 1012.7901,-83.131"/>
<polygon fill="#000000" stroke="#000000" points="1015.8406,-81.4143 1007.9833,-74.3069 1009.6934,-84.7629 1015.8406,-81.4143"/>
<text text-anchor="middle" x="1096.0796" y="-112.4" font-family="Times,serif" font-size="14.00" fill="#000000">psp_kin_sub_clusters</text>
</g>
<!-- v20 -->
<g id="node23" class="node">
<title>v20</title>
<ellipse fill="#000000" stroke="#000000" cx="733.0796" cy="-246.6" rx="3.6" ry="3.6"/>
</g>
<!-- v21 -->
<g id="node24" class="node">
<title>v21</title>
<ellipse fill="none" stroke="#000000" cx="762.0796" cy="-159.6" rx="103.1819" ry="18"/>
<text text-anchor="middle" x="762.0796" y="-155.9" font-family="Times,serif" font-size="14.00" fill="#000000">PSP:hs_phosphoproteome</text>
</g>
<!-- v20&#45;&gt;v21 -->
<g id="edge22" class="edge">
<title>v20&#45;&gt;v21</title>
<path fill="none" stroke="#000000" d="M732.3972,-243.0006C730.9379,-234.4676 728.1084,-212.4629 734.0796,-195.6 735.2516,-192.2903 736.8576,-189.047 738.7123,-185.9465"/>
<polygon fill="#000000" stroke="#000000" points="741.6396,-187.8669 744.4432,-177.6497 735.88,-183.8885 741.6396,-187.8669"/>
<text text-anchor="middle" x="837.0796" y="-199.4" font-family="Times,serif" font-size="14.00" fill="#000000">input/Phosphorylation_site_dataset.gz</text>
</g>
<!-- v21&#45;&gt;v22 -->
<g id="edge23" class="edge">
<title>v21&#45;&gt;v22</title>
<path fill="none" stroke="#000000" d="M803.2905,-142.9382C818.3315,-136.855 835.4762,-129.9186 851.0796,-123.6 867.5266,-116.9398 870.8326,-112.7721 888.0796,-108.6 925.6234,-99.5179 1005.4924,-91.5678 1084.1426,-85.465"/>
<polygon fill="#000000" stroke="#000000" points="1084.5209,-88.9464 1094.2241,-84.6922 1083.9858,-81.9669 1084.5209,-88.9464"/>
<text text-anchor="middle" x="956.5796" y="-112.4" font-family="Times,serif" font-size="14.00" fill="#000000">human_phosphosites_tsv</text>
</g>
<!-- v21&#45;&gt;v25 -->
<g id="edge26" class="edge">
<title>v21&#45;&gt;v25</title>
<path fill="none" stroke="#000000" d="M730.1055,-142.0776C723.6875,-136.998 717.7843,-130.8313 714.0796,-123.6 710.5817,-116.7725 709.3366,-108.726 709.2201,-101.0673"/>
<polygon fill="#000000" stroke="#000000" points="712.7194,-101.1569 709.6553,-91.0148 705.726,-100.854 712.7194,-101.1569"/>
<text text-anchor="middle" x="782.5796" y="-112.4" font-family="Times,serif" font-size="14.00" fill="#000000">human_phosphosites_tsv</text>
</g>
<!-- v28 -->
<g id="node29" class="node">
<title>v28</title>
<ellipse fill="#000000" stroke="#000000" cx="2057.0796" cy="-392.2" rx="3.6" ry="3.6"/>
<text text-anchor="middle" x="2003.4796" y="-399.6" font-family="Times,serif" font-size="14.00" fill="#000000">Channel.fromPath</text>
</g>
<!-- v30 -->
<g id="node30" class="node">
<title>v30</title>
<ellipse fill="none" stroke="#000000" cx="2096.0796" cy="-319.6" rx="112.3801" ry="18"/>
<text text-anchor="middle" x="2096.0796" y="-315.9" font-family="Times,serif" font-size="14.00" fill="#000000">PUBLISH_CONFIG:publish</text>
</g>
<!-- v28&#45;&gt;v30 -->
<g id="edge29" class="edge">
<title>v28&#45;&gt;v30</title>
<path fill="none" stroke="#000000" d="M2056.1621,-388.5767C2054.633,-381.7754 2052.1865,-366.7758 2057.0796,-355.6 2058.7842,-351.7066 2061.1407,-348.0476 2063.8587,-344.6648"/>
<polygon fill="#000000" stroke="#000000" points="2066.4692,-346.9972 2070.7204,-337.2927 2061.3452,-342.228 2066.4692,-346.9972"/>
<text text-anchor="middle" x="2084.0796" y="-359.4" font-family="Times,serif" font-size="14.00" fill="#000000">config_ch</text>
</g>
<!-- v31 -->
<g id="node32" class="node">
<title>v31</title>
<ellipse fill="#000000" stroke="#000000" cx="2096.0796" cy="-246.6" rx="1.8" ry="1.8"/>
</g>
<!-- v30&#45;&gt;v31 -->
<g id="edge31" class="edge">
<title>v30&#45;&gt;v31</title>
<path fill="none" stroke="#000000" d="M2096.0796,-301.5551C2096.0796,-288.2025 2096.0796,-270.3784 2096.0796,-258.701"/>
<polygon fill="#000000" stroke="#000000" points="2099.5797,-258.4525 2096.0796,-248.4525 2092.5797,-258.4525 2099.5797,-258.4525"/>
</g>
<!-- v29 -->
<g id="node31" class="node">
<title>v29</title>
<ellipse fill="#000000" stroke="#000000" cx="2134.0796" cy="-392.2" rx="3.6" ry="3.6"/>
<text text-anchor="middle" x="2099.9796" y="-399.6" font-family="Times,serif" font-size="14.00" fill="#000000">Channel.of</text>
</g>
<!-- v29&#45;&gt;v30 -->
<g id="edge30" class="edge">
<title>v29&#45;&gt;v30</title>
<path fill="none" stroke="#000000" d="M2132.2468,-388.6984C2128.281,-381.1216 2118.5867,-362.6005 2110.2323,-346.6392"/>
<polygon fill="#000000" stroke="#000000" points="2113.26,-344.876 2105.5217,-337.6393 2107.0581,-348.1222 2113.26,-344.876"/>
<text text-anchor="middle" x="2140.0796" y="-359.4" font-family="Times,serif" font-size="14.00" fill="#000000">val_ch</text>
</g>
</g>
</svg>
