<?xml version="1.0" encoding="UTF-8" standalone="no"?>
<!DOCTYPE svg PUBLIC "-//W3C//DTD SVG 1.1//EN"
 "http://www.w3.org/Graphics/SVG/1.1/DTD/svg11.dtd">
<!-- Generated by graphviz version 2.40.1 (0)
 -->
<!-- Title: flowchart Pages: 1 -->
<svg width="1549pt" height="273pt"
 viewBox="0.00 0.00 1548.62 273.20" xmlns="http://www.w3.org/2000/svg" xmlns:xlink="http://www.w3.org/1999/xlink">
<g id="graph0" class="graph" transform="scale(1 1) rotate(0) translate(4 269.2)">
<title>flowchart</title>
<polygon fill="#ffffff" stroke="transparent" points="-4,4 -4,-269.2 1544.6165,-269.2 1544.6165,4 -4,4"/>
<!-- v0 -->
<g id="node1" class="node">
<title>v0</title>
<ellipse fill="none" stroke="#000000" cx="265.1765" cy="-246.6" rx="265.3531" ry="18"/>
<text text-anchor="middle" x="265.1765" y="-242.9" font-family="Times,serif" font-size="14.00" fill="#000000">SER_THR_KINASES_PSSM:get_ser_thr_kinome_2023_suppl_table_2</text>
</g>
<!-- v1 -->
<g id="node2" class="node">
<title>v1</title>
<ellipse fill="none" stroke="#000000" cx="265.1765" cy="-159.6" rx="207.9631" ry="18"/>
<text text-anchor="middle" x="265.1765" y="-155.9" font-family="Times,serif" font-size="14.00" fill="#000000">SER_THR_KINASES_PSSM:get_ser_thr_kinase_pssm</text>
</g>
<!-- v0&#45;&gt;v1 -->
<g id="edge1" class="edge">
<title>v0&#45;&gt;v1</title>
<path fill="none" stroke="#000000" d="M265.1765,-228.5735C265.1765,-216.7918 265.1765,-201.1607 265.1765,-187.7581"/>
<polygon fill="#000000" stroke="#000000" points="268.6766,-187.6033 265.1765,-177.6034 261.6766,-187.6034 268.6766,-187.6033"/>
</g>
<!-- v10 -->
<g id="node3" class="node">
<title>v10</title>
<ellipse fill="none" stroke="#000000" cx="547.1765" cy="-72.6" rx="262.6534" ry="18"/>
<text text-anchor="middle" x="547.1765" y="-68.9" font-family="Times,serif" font-size="14.00" fill="#000000">S_T_PSSM_BACKGROUND_SCORES:s_t_pssm_background_scores</text>
</g>
<!-- v1&#45;&gt;v10 -->
<g id="edge2" class="edge">
<title>v1&#45;&gt;v10</title>
<path fill="none" stroke="#000000" d="M321.5656,-142.2033C367.2788,-128.1003 431.8207,-108.1885 480.168,-93.2728"/>
<polygon fill="#000000" stroke="#000000" points="481.3947,-96.5572 489.9184,-90.2647 479.331,-89.8683 481.3947,-96.5572"/>
<text text-anchor="middle" x="461.1765" y="-112.4" font-family="Times,serif" font-size="14.00" fill="#000000">pssm_dict_h5</text>
</g>
<!-- v3 -->
<g id="node4" class="node">
<title>v3</title>
<ellipse fill="#000000" stroke="#000000" cx="240.1765" cy="-72.6" rx="1.8" ry="1.8"/>
</g>
<!-- v1&#45;&gt;v3 -->
<g id="edge3" class="edge">
<title>v1&#45;&gt;v3</title>
<path fill="none" stroke="#000000" d="M259.9965,-141.5735C255.0408,-124.3278 247.7151,-98.8345 243.497,-84.1554"/>
<polygon fill="#000000" stroke="#000000" points="246.8535,-83.1629 240.7278,-74.5185 240.1258,-85.0962 246.8535,-83.1629"/>
</g>
<!-- v2 -->
<g id="node5" class="node">
<title>v2</title>
<ellipse fill="#000000" stroke="#000000" cx="265.1765" cy="-72.6" rx="1.8" ry="1.8"/>
</g>
<!-- v1&#45;&gt;v2 -->
<g id="edge4" class="edge">
<title>v1&#45;&gt;v2</title>
<path fill="none" stroke="#000000" d="M265.1765,-141.5735C265.1765,-124.502 265.1765,-99.3487 265.1765,-84.6035"/>
<polygon fill="#000000" stroke="#000000" points="268.6766,-84.5185 265.1765,-74.5185 261.6766,-84.5185 268.6766,-84.5185"/>
</g>
<!-- v12 -->
<g id="node13" class="node">
<title>v12</title>
<ellipse fill="#000000" stroke="#000000" cx="521.1765" cy="-1.8" rx="1.8" ry="1.8"/>
</g>
<!-- v10&#45;&gt;v12 -->
<g id="edge11" class="edge">
<title>v10&#45;&gt;v12</title>
<path fill="none" stroke="#000000" d="M536.9678,-54.2859C534.158,-48.7254 531.3022,-42.5188 529.1765,-36.6 526.5205,-29.2049 524.5335,-20.6018 523.204,-13.7997"/>
<polygon fill="#000000" stroke="#000000" points="526.615,-12.985 521.4551,-3.7316 519.7183,-14.1831 526.615,-12.985"/>
<text text-anchor="middle" x="543.1765" y="-25.4" font-family="Times,serif" font-size="14.00" fill="#000000">tsvgz</text>
</g>
<!-- v11 -->
<g id="node14" class="node">
<title>v11</title>
<ellipse fill="#000000" stroke="#000000" cx="572.1765" cy="-1.8" rx="1.8" ry="1.8"/>
</g>
<!-- v10&#45;&gt;v11 -->
<g id="edge12" class="edge">
<title>v10&#45;&gt;v11</title>
<path fill="none" stroke="#000000" d="M553.6146,-54.3672C558.1899,-41.4099 564.1949,-24.4038 568.1178,-13.2941"/>
<polygon fill="#000000" stroke="#000000" points="571.5268,-14.1515 571.5562,-3.5567 564.9262,-11.8208 571.5268,-14.1515"/>
<text text-anchor="middle" x="572.1765" y="-25.4" font-family="Times,serif" font-size="14.00" fill="#000000">h5</text>
</g>
<!-- v4 -->
<g id="node6" class="node">
<title>v4</title>
<ellipse fill="none" stroke="#000000" cx="1112.1765" cy="-246.6" rx="230.1592" ry="18"/>
<text text-anchor="middle" x="1112.1765" y="-242.9" font-family="Times,serif" font-size="14.00" fill="#000000">TYR_KINASES_PSSM:get_tyr_kinome_2024_suppl_table_2</text>
</g>
<!-- v5 -->
<g id="node7" class="node">
<title>v5</title>
<ellipse fill="none" stroke="#000000" cx="1112.1765" cy="-159.6" rx="172.7694" ry="18"/>
<text text-anchor="middle" x="1112.1765" y="-155.9" font-family="Times,serif" font-size="14.00" fill="#000000">TYR_KINASES_PSSM:get_tyr_kinase_pssm</text>
</g>
<!-- v4&#45;&gt;v5 -->
<g id="edge5" class="edge">
<title>v4&#45;&gt;v5</title>
<path fill="none" stroke="#000000" d="M1112.1765,-228.5735C1112.1765,-216.7918 1112.1765,-201.1607 1112.1765,-187.7581"/>
<polygon fill="#000000" stroke="#000000" points="1115.6766,-187.6033 1112.1765,-177.6034 1108.6766,-187.6034 1115.6766,-187.6033"/>
</g>
<!-- v13 -->
<g id="node8" class="node">
<title>v13</title>
<ellipse fill="none" stroke="#000000" cx="1112.1765" cy="-72.6" rx="248.0561" ry="18"/>
<text text-anchor="middle" x="1112.1765" y="-68.9" font-family="Times,serif" font-size="14.00" fill="#000000">Y_PSSM_BACKGROUND_SCORES:y_pssm_background_scores</text>
</g>
<!-- v5&#45;&gt;v13 -->
<g id="edge6" class="edge">
<title>v5&#45;&gt;v13</title>
<path fill="none" stroke="#000000" d="M1112.1765,-141.5735C1112.1765,-129.7918 1112.1765,-114.1607 1112.1765,-100.7581"/>
<polygon fill="#000000" stroke="#000000" points="1115.6766,-100.6033 1112.1765,-90.6034 1108.6766,-100.6034 1115.6766,-100.6033"/>
<text text-anchor="middle" x="1150.1765" y="-112.4" font-family="Times,serif" font-size="14.00" fill="#000000">pssm_dict_h5</text>
</g>
<!-- v7 -->
<g id="node9" class="node">
<title>v7</title>
<ellipse fill="#000000" stroke="#000000" cx="844.1765" cy="-72.6" rx="1.8" ry="1.8"/>
</g>
<!-- v5&#45;&gt;v7 -->
<g id="edge7" class="edge">
<title>v5&#45;&gt;v7</title>
<path fill="none" stroke="#000000" d="M1027.1906,-143.8544C963.3446,-130.7391 882.4123,-110.9746 855.1765,-90.6 852.8011,-88.823 850.8276,-86.3685 849.2396,-83.8431"/>
<polygon fill="#000000" stroke="#000000" points="852.3052,-82.1403 844.8395,-74.6227 845.9877,-85.1552 852.3052,-82.1403"/>
</g>
<!-- v6 -->
<g id="node10" class="node">
<title>v6</title>
<ellipse fill="#000000" stroke="#000000" cx="1380.1765" cy="-72.6" rx="1.8" ry="1.8"/>
</g>
<!-- v5&#45;&gt;v6 -->
<g id="edge8" class="edge">
<title>v5&#45;&gt;v6</title>
<path fill="none" stroke="#000000" d="M1197.1624,-143.8544C1261.0083,-130.7391 1341.9407,-110.9746 1369.1765,-90.6 1371.5518,-88.823 1373.5253,-86.3685 1375.1134,-83.8431"/>
<polygon fill="#000000" stroke="#000000" points="1378.3653,-85.1552 1379.5134,-74.6227 1372.0478,-82.1403 1378.3653,-85.1552"/>
</g>
<!-- v15 -->
<g id="node15" class="node">
<title>v15</title>
<ellipse fill="#000000" stroke="#000000" cx="1086.1765" cy="-1.8" rx="1.8" ry="1.8"/>
</g>
<!-- v13&#45;&gt;v15 -->
<g id="edge14" class="edge">
<title>v13&#45;&gt;v15</title>
<path fill="none" stroke="#000000" d="M1101.9678,-54.2859C1099.158,-48.7254 1096.3022,-42.5188 1094.1765,-36.6 1091.5205,-29.2049 1089.5335,-20.6018 1088.204,-13.7997"/>
<polygon fill="#000000" stroke="#000000" points="1091.615,-12.985 1086.4551,-3.7316 1084.7183,-14.1831 1091.615,-12.985"/>
<text text-anchor="middle" x="1108.1765" y="-25.4" font-family="Times,serif" font-size="14.00" fill="#000000">tsvgz</text>
</g>
<!-- v14 -->
<g id="node16" class="node">
<title>v14</title>
<ellipse fill="#000000" stroke="#000000" cx="1137.1765" cy="-1.8" rx="1.8" ry="1.8"/>
</g>
<!-- v13&#45;&gt;v14 -->
<g id="edge15" class="edge">
<title>v13&#45;&gt;v14</title>
<path fill="none" stroke="#000000" d="M1118.6146,-54.3672C1123.1899,-41.4099 1129.1949,-24.4038 1133.1178,-13.2941"/>
<polygon fill="#000000" stroke="#000000" points="1136.5268,-14.1515 1136.5562,-3.5567 1129.9262,-11.8208 1136.5268,-14.1515"/>
<text text-anchor="middle" x="1137.1765" y="-25.4" font-family="Times,serif" font-size="14.00" fill="#000000">h5</text>
</g>
<!-- v8 -->
<g id="node11" class="node">
<title>v8</title>
<ellipse fill="#000000" stroke="#000000" cx="651.1765" cy="-246.6" rx="3.6" ry="3.6"/>
</g>
<!-- v9 -->
<g id="node12" class="node">
<title>v9</title>
<ellipse fill="none" stroke="#000000" cx="651.1765" cy="-159.6" rx="103.1819" ry="18"/>
<text text-anchor="middle" x="651.1765" y="-155.9" font-family="Times,serif" font-size="14.00" fill="#000000">PSP:hs_phosphoproteome</text>
</g>
<!-- v8&#45;&gt;v9 -->
<g id="edge9" class="edge">
<title>v8&#45;&gt;v9</title>
<path fill="none" stroke="#000000" d="M651.1765,-242.8617C651.1765,-233.445 651.1765,-208.053 651.1765,-187.7647"/>
<polygon fill="#000000" stroke="#000000" points="654.6766,-187.7321 651.1765,-177.7322 647.6766,-187.7322 654.6766,-187.7321"/>
<text text-anchor="middle" x="754.1765" y="-199.4" font-family="Times,serif" font-size="14.00" fill="#000000">input/Phosphorylation_site_dataset.gz</text>
</g>
<!-- v9&#45;&gt;v10 -->
<g id="edge10" class="edge">
<title>v9&#45;&gt;v10</title>
<path fill="none" stroke="#000000" d="M590.9145,-144.8585C571.6926,-138.87 553.9008,-131.4995 548.1765,-123.6 543.4793,-117.1181 541.9746,-108.8553 541.9933,-100.8774"/>
<polygon fill="#000000" stroke="#000000" points="545.4968,-100.9614 542.7553,-90.7275 538.5164,-100.4374 545.4968,-100.9614"/>
<text text-anchor="middle" x="616.6765" y="-112.4" font-family="Times,serif" font-size="14.00" fill="#000000">human_phosphosites_tsv</text>
</g>
<!-- v9&#45;&gt;v13 -->
<g id="edge13" class="edge">
<title>v9&#45;&gt;v13</title>
<path fill="none" stroke="#000000" d="M721.4432,-146.3393C799.2288,-131.6595 925.1993,-107.8864 1013.0082,-91.3151"/>
<polygon fill="#000000" stroke="#000000" points="1013.8081,-94.726 1022.9856,-89.4321 1012.5099,-87.8474 1013.8081,-94.726"/>
<text text-anchor="middle" x="978.6765" y="-112.4" font-family="Times,serif" font-size="14.00" fill="#000000">human_phosphosites_tsv</text>
</g>
<!-- v16 -->
<g id="node17" class="node">
<title>v16</title>
<ellipse fill="#000000" stroke="#000000" cx="1364.1765" cy="-246.6" rx="3.6" ry="3.6"/>
<text text-anchor="middle" x="1410.5765" y="-254" font-family="Times,serif" font-size="14.00" fill="#000000">Channel.fromPath</text>
</g>
<!-- v18 -->
<g id="node18" class="node">
<title>v18</title>
<ellipse fill="none" stroke="#000000" cx="1428.1765" cy="-159.6" rx="112.3801" ry="18"/>
<text text-anchor="middle" x="1428.1765" y="-155.9" font-family="Times,serif" font-size="14.00" fill="#000000">PUBLISH_CONFIG:publish</text>
</g>
<!-- v16&#45;&gt;v18 -->
<g id="edge16" class="edge">
<title>v16&#45;&gt;v18</title>
<path fill="none" stroke="#000000" d="M1364.1719,-242.7764C1364.3399,-233.7592 1365.8296,-210.7835 1376.1765,-195.6 1379.2681,-191.0632 1383.1357,-186.9253 1387.3582,-183.2035"/>
<polygon fill="#000000" stroke="#000000" points="1389.5814,-185.9076 1395.2512,-176.9575 1385.2375,-180.4184 1389.5814,-185.9076"/>
<text text-anchor="middle" x="1403.1765" y="-199.4" font-family="Times,serif" font-size="14.00" fill="#000000">config_ch</text>
</g>
<!-- v19 -->
<g id="node20" class="node">
<title>v19</title>
<ellipse fill="#000000" stroke="#000000" cx="1428.1765" cy="-72.6" rx="1.8" ry="1.8"/>
</g>
<!-- v18&#45;&gt;v19 -->
<g id="edge18" class="edge">
<title>v18&#45;&gt;v19</title>
<path fill="none" stroke="#000000" d="M1428.1765,-141.5735C1428.1765,-124.502 1428.1765,-99.3487 1428.1765,-84.6035"/>
<polygon fill="#000000" stroke="#000000" points="1431.6766,-84.5185 1428.1765,-74.5185 1424.6766,-84.5185 1431.6766,-84.5185"/>
</g>
<!-- v17 -->
<g id="node19" class="node">
<title>v17</title>
<ellipse fill="#000000" stroke="#000000" cx="1441.1765" cy="-246.6" rx="3.6" ry="3.6"/>
<text text-anchor="middle" x="1407.0765" y="-231.8" font-family="Times,serif" font-size="14.00" fill="#000000">Channel.of</text>
</g>
<!-- v17&#45;&gt;v18 -->
<g id="edge17" class="edge">
<title>v17&#45;&gt;v18</title>
<path fill="none" stroke="#000000" d="M1440.6179,-242.8617C1439.2108,-233.445 1435.4166,-208.053 1432.385,-187.7647"/>
<polygon fill="#000000" stroke="#000000" points="1435.8254,-187.1051 1430.8859,-177.7322 1428.9022,-188.1396 1435.8254,-187.1051"/>
<text text-anchor="middle" x="1454.1765" y="-199.4" font-family="Times,serif" font-size="14.00" fill="#000000">val_ch</text>
</g>
</g>
</svg>
