<?xml version="1.0" encoding="UTF-8" standalone="no"?>
<!DOCTYPE svg PUBLIC "-//W3C//DTD SVG 1.1//EN"
 "http://www.w3.org/Graphics/SVG/1.1/DTD/svg11.dtd">
<!-- Generated by graphviz version 2.40.1 (0)
 -->
<!-- Title: flowchart Pages: 1 -->
<svg width="2703pt" height="812pt"
 viewBox="0.00 0.00 2702.77 812.20" xmlns="http://www.w3.org/2000/svg" xmlns:xlink="http://www.w3.org/1999/xlink">
<g id="graph0" class="graph" transform="scale(1 1) rotate(0) translate(4 808.2)">
<title>flowchart</title>
<polygon fill="#ffffff" stroke="transparent" points="-4,4 -4,-808.2 2698.7659,-808.2 2698.7659,4 -4,4"/>
<!-- v0 -->
<g id="node1" class="node">
<title>v0</title>
<ellipse fill="none" stroke="#000000" cx="1204.0796" cy="-319.6" rx="85.5853" ry="18"/>
<text text-anchor="middle" x="1204.0796" y="-315.9" font-family="Times,serif" font-size="14.00" fill="#000000">UNIPROT:dl_human</text>
</g>
<!-- v2 -->
<g id="node2" class="node">
<title>v2</title>
<ellipse fill="none" stroke="#000000" cx="1620.0796" cy="-246.6" rx="173.5692" ry="18"/>
<text text-anchor="middle" x="1620.0796" y="-242.9" font-family="Times,serif" font-size="14.00" fill="#000000">UNIPROT:uniprot2gene_name_and_synonym</text>
</g>
<!-- v0&#45;&gt;v2 -->
<g id="edge1" class="edge">
<title>v0&#45;&gt;v2</title>
<path fill="none" stroke="#000000" d="M1269.996,-308.0329C1337.6373,-296.1632 1443.6792,-277.5549 1521.342,-263.9265"/>
<polygon fill="#000000" stroke="#000000" points="1522.3805,-267.2979 1531.625,-262.1221 1521.1706,-260.4032 1522.3805,-267.2979"/>
</g>
<!-- v5 -->
<g id="node4" class="node">
<title>v5</title>
<ellipse fill="none" stroke="#000000" cx="1430.0796" cy="-159.6" rx="125.3778" ry="18"/>
<text text-anchor="middle" x="1430.0796" y="-155.9" font-family="Times,serif" font-size="14.00" fill="#000000">UNIPROT:IDa2uniprot_ref2IDb</text>
</g>
<!-- v0&#45;&gt;v5 -->
<g id="edge4" class="edge">
<title>v0&#45;&gt;v5</title>
<path fill="none" stroke="#000000" d="M1128.7054,-310.9938C1057.3722,-299.8242 966.6396,-275.8809 1006.0796,-228.6 1058.4586,-165.8078 1106.4024,-208.9269 1187.0796,-195.6 1234.0215,-187.8458 1286.1976,-180.0133 1330.1315,-173.6432"/>
<polygon fill="#000000" stroke="#000000" points="1330.8453,-177.0765 1340.2417,-172.182 1329.8439,-170.1485 1330.8453,-177.0765"/>
<text text-anchor="middle" x="1063.5796" y="-242.9" font-family="Times,serif" font-size="14.00" fill="#000000">input/mapping.tsv.gz</text>
</g>
<!-- v30 -->
<g id="node5" class="node">
<title>v30</title>
<ellipse fill="none" stroke="#000000" cx="903.0796" cy="-159.6" rx="147.5738" ry="18"/>
<text text-anchor="middle" x="903.0796" y="-155.9" font-family="Times,serif" font-size="14.00" fill="#000000">KINASES:translate_ac_to_gene_name</text>
</g>
<!-- v2&#45;&gt;v30 -->
<g id="edge3" class="edge">
<title>v2&#45;&gt;v30</title>
<path fill="none" stroke="#000000" d="M1524.0738,-231.5967C1452.9519,-220.7677 1353.6071,-206.2399 1266.0796,-195.6 1188.9322,-186.2219 1102.3362,-177.5626 1033.0771,-171.0878"/>
<polygon fill="#000000" stroke="#000000" points="1033.269,-167.5906 1022.9876,-170.1486 1032.6201,-174.5605 1033.269,-167.5906"/>
<text text-anchor="middle" x="1482.5796" y="-199.4" font-family="Times,serif" font-size="14.00" fill="#000000">uniprot2gene_name_and_synonym_dict</text>
</g>
<!-- v37 -->
<g id="node38" class="node">
<title>v37</title>
<ellipse fill="none" stroke="#000000" cx="2484.0796" cy="-159.6" rx="155.9723" ry="18"/>
<text text-anchor="middle" x="2484.0796" y="-155.9" font-family="Times,serif" font-size="14.00" fill="#000000">KINASES:translate_ac_to_gene_name_v</text>
</g>
<!-- v2&#45;&gt;v37 -->
<g id="edge42" class="edge">
<title>v2&#45;&gt;v37</title>
<path fill="none" stroke="#000000" d="M1745.8882,-234.1532C1764.7222,-232.2911 1783.911,-230.3946 1802.0796,-228.6 2031.8545,-205.9043 2089.422,-201.4535 2319.0796,-177.6 2332.6871,-176.1866 2346.9224,-174.6784 2361.0847,-173.1592"/>
<polygon fill="#000000" stroke="#000000" points="2361.8058,-176.6019 2371.374,-172.0521 2361.057,-169.642 2361.8058,-176.6019"/>
<text text-anchor="middle" x="2249.5796" y="-199.4" font-family="Times,serif" font-size="14.00" fill="#000000">uniprot2gene_name_and_synonym_dict</text>
</g>
<!-- v1 -->
<g id="node3" class="node">
<title>v1</title>
<ellipse fill="none" stroke="#000000" cx="1292.0796" cy="-246.6" rx="136.4758" ry="18"/>
<text text-anchor="middle" x="1292.0796" y="-242.9" font-family="Times,serif" font-size="14.00" fill="#000000">UNIPROT:dl_ref_proteome_ac_list</text>
</g>
<!-- v1&#45;&gt;v5 -->
<g id="edge2" class="edge">
<title>v1&#45;&gt;v5</title>
<path fill="none" stroke="#000000" d="M1320.3389,-228.7843C1341.3624,-215.5304 1370.2474,-197.3203 1393.1061,-182.9094"/>
<polygon fill="#000000" stroke="#000000" points="1395.2653,-185.6857 1401.858,-177.3919 1391.5322,-179.7642 1395.2653,-185.6857"/>
</g>
<!-- v34 -->
<g id="node8" class="node">
<title>v34</title>
<ellipse fill="none" stroke="#000000" cx="951.0796" cy="-72.6" rx="164.3708" ry="18"/>
<text text-anchor="middle" x="951.0796" y="-68.9" font-family="Times,serif" font-size="14.00" fill="#000000">KINASES:link_kinase_metadata_to_pssms</text>
</g>
<!-- v5&#45;&gt;v34 -->
<g id="edge7" class="edge">
<title>v5&#45;&gt;v34</title>
<path fill="none" stroke="#000000" d="M1340.7785,-146.9574C1325.8681,-145.0324 1310.548,-143.168 1296.0796,-141.6 1199.4269,-131.1251 1170.048,-155.1161 1078.0796,-123.6 1066.5346,-119.6437 1066.0389,-113.9695 1055.0796,-108.6 1043.321,-102.8389 1030.405,-97.5824 1017.7939,-92.9733"/>
<polygon fill="#000000" stroke="#000000" points="1018.8285,-89.6266 1008.2337,-89.5771 1016.4852,-96.2227 1018.8285,-89.6266"/>
<text text-anchor="middle" x="1168.5796" y="-112.4" font-family="Times,serif" font-size="14.00" fill="#000000">gene_synomym2gene_name_dict</text>
</g>
<!-- v41 -->
<g id="node42" class="node">
<title>v41</title>
<ellipse fill="none" stroke="#000000" cx="2082.0796" cy="-72.6" rx="187.6668" ry="18"/>
<text text-anchor="middle" x="2082.0796" y="-68.9" font-family="Times,serif" font-size="14.00" fill="#000000">KINASES:link_hmm_kinase_metadata_to_pssms</text>
</g>
<!-- v5&#45;&gt;v41 -->
<g id="edge47" class="edge">
<title>v5&#45;&gt;v41</title>
<path fill="none" stroke="#000000" d="M1554.9424,-157.5188C1668.7096,-154.2175 1827.6224,-145.6798 1886.0796,-123.6 1896.474,-119.674 1895.9461,-113.1574 1906.0796,-108.6 1923.721,-100.6661 1943.1448,-94.4634 1962.4519,-89.6189"/>
<polygon fill="#000000" stroke="#000000" points="1963.3097,-93.0125 1972.2185,-87.2779 1961.6781,-86.2053 1963.3097,-93.0125"/>
<text text-anchor="middle" x="1996.5796" y="-112.4" font-family="Times,serif" font-size="14.00" fill="#000000">gene_synomym2gene_name_dict</text>
</g>
<!-- v30&#45;&gt;v34 -->
<g id="edge36" class="edge">
<title>v30&#45;&gt;v34</title>
<path fill="none" stroke="#000000" d="M790.1021,-147.8908C761.4327,-142.4901 736.1509,-134.7146 727.0796,-123.6 722.8643,-118.4352 722.7557,-113.6743 727.0796,-108.6 734.0708,-100.3954 776.0412,-92.625 821.7977,-86.4176"/>
<polygon fill="#000000" stroke="#000000" points="822.4649,-89.8599 831.9187,-85.0769 821.5456,-82.9205 822.4649,-89.8599"/>
<text text-anchor="middle" x="798.5796" y="-112.4" font-family="Times,serif" font-size="14.00" fill="#000000">input/kinase_metadata.tsv</text>
</g>
<!-- v32 -->
<g id="node34" class="node">
<title>v32</title>
<ellipse fill="none" stroke="#000000" cx="1237.0796" cy="-72.6" rx="75.2868" ry="18"/>
<text text-anchor="middle" x="1237.0796" y="-68.9" font-family="Times,serif" font-size="14.00" fill="#000000">KINASES:publish</text>
</g>
<!-- v30&#45;&gt;v32 -->
<g id="edge33" class="edge">
<title>v30&#45;&gt;v32</title>
<path fill="none" stroke="#000000" d="M895.0888,-141.3673C891.6904,-130.517 890.1121,-117.2273 898.0796,-108.6 915.1703,-90.0939 1099.0663,-93.5837 1124.0796,-90.6 1137.6509,-88.9812 1152.0894,-86.9324 1165.9486,-84.8016"/>
<polygon fill="#000000" stroke="#000000" points="1166.5792,-88.2456 1175.9173,-83.2406 1165.4961,-81.3299 1166.5792,-88.2456"/>
</g>
<!-- v3 -->
<g id="node6" class="node">
<title>v3</title>
<ellipse fill="#000000" stroke="#000000" cx="1815.0796" cy="-246.6" rx="3.6" ry="3.6"/>
</g>
<!-- v3&#45;&gt;v5 -->
<g id="edge5" class="edge">
<title>v3&#45;&gt;v5</title>
<path fill="none" stroke="#000000" d="M1813.6289,-242.9699C1811.7934,-238.8508 1808.2372,-232.2347 1803.0796,-228.6 1753.6487,-193.7651 1730.3865,-207.4142 1671.0796,-195.6 1626.5239,-186.7243 1576.9399,-178.9601 1534.3868,-172.9368"/>
<polygon fill="#000000" stroke="#000000" points="1534.6834,-169.4442 1524.2943,-171.522 1533.7116,-176.3765 1534.6834,-169.4442"/>
<text text-anchor="middle" x="1779.5796" y="-199.4" font-family="Times,serif" font-size="14.00" fill="#000000">IDa</text>
</g>
<!-- v4 -->
<g id="node7" class="node">
<title>v4</title>
<ellipse fill="#000000" stroke="#000000" cx="1134.0796" cy="-246.6" rx="3.6" ry="3.6"/>
</g>
<!-- v4&#45;&gt;v5 -->
<g id="edge6" class="edge">
<title>v4&#45;&gt;v5</title>
<path fill="none" stroke="#000000" d="M1135.5832,-243.2533C1137.6011,-239.1543 1141.5785,-232.3011 1147.0796,-228.6 1178.0234,-207.7813 1267.2539,-188.0472 1337.3346,-175.0589"/>
<polygon fill="#000000" stroke="#000000" points="1338.3204,-178.4367 1347.5262,-173.1922 1337.0592,-171.5512 1338.3204,-178.4367"/>
<text text-anchor="middle" x="1251.0796" y="-199.4" font-family="Times,serif" font-size="14.00" fill="#000000">IDb</text>
</g>
<!-- v35 -->
<g id="node37" class="node">
<title>v35</title>
<ellipse fill="#000000" stroke="#000000" cx="951.0796" cy="-1.8" rx="1.8" ry="1.8"/>
</g>
<!-- v34&#45;&gt;v35 -->
<g id="edge39" class="edge">
<title>v34&#45;&gt;v35</title>
<path fill="none" stroke="#000000" d="M951.0796,-54.3672C951.0796,-41.7838 951.0796,-25.3818 951.0796,-14.2703"/>
<polygon fill="#000000" stroke="#000000" points="954.5797,-13.9527 951.0796,-3.9527 947.5797,-13.9527 954.5797,-13.9527"/>
</g>
<!-- v6 -->
<g id="node9" class="node">
<title>v6</title>
<ellipse fill="none" stroke="#000000" cx="2102.0796" cy="-246.6" rx="265.3531" ry="18"/>
<text text-anchor="middle" x="2102.0796" y="-242.9" font-family="Times,serif" font-size="14.00" fill="#000000">SER_THR_KINASES_PSSM:get_ser_thr_kinome_2023_suppl_table_2</text>
</g>
<!-- v7 -->
<g id="node10" class="node">
<title>v7</title>
<ellipse fill="none" stroke="#000000" cx="2102.0796" cy="-159.6" rx="207.9631" ry="18"/>
<text text-anchor="middle" x="2102.0796" y="-155.9" font-family="Times,serif" font-size="14.00" fill="#000000">SER_THR_KINASES_PSSM:get_ser_thr_kinase_pssm</text>
</g>
<!-- v6&#45;&gt;v7 -->
<g id="edge8" class="edge">
<title>v6&#45;&gt;v7</title>
<path fill="none" stroke="#000000" d="M2102.0796,-228.5735C2102.0796,-216.7918 2102.0796,-201.1607 2102.0796,-187.7581"/>
<polygon fill="#000000" stroke="#000000" points="2105.5797,-187.6033 2102.0796,-177.6034 2098.5797,-187.6034 2105.5797,-187.6033"/>
</g>
<!-- v7&#45;&gt;v34 -->
<g id="edge37" class="edge">
<title>v7&#45;&gt;v34</title>
<path fill="none" stroke="#000000" d="M1899.474,-155.4922C1762.1022,-151.0794 1593.5277,-142.0272 1525.0796,-123.6 1510.685,-119.7248 1509.4929,-112.4052 1495.0796,-108.6 1421.4955,-89.1735 1228.9945,-95.9783 1153.0796,-90.6 1131.2055,-89.0503 1108.0183,-87.1892 1085.4517,-85.26"/>
<polygon fill="#000000" stroke="#000000" points="1085.7443,-81.7723 1075.4804,-84.3998 1085.1426,-88.7464 1085.7443,-81.7723"/>
<text text-anchor="middle" x="1608.5796" y="-112.4" font-family="Times,serif" font-size="14.00" fill="#000000">ser_thr_kinases_pssm_dict_h5</text>
</g>
<!-- v16 -->
<g id="node11" class="node">
<title>v16</title>
<ellipse fill="none" stroke="#000000" cx="1607.0796" cy="-72.6" rx="262.6534" ry="18"/>
<text text-anchor="middle" x="1607.0796" y="-68.9" font-family="Times,serif" font-size="14.00" fill="#000000">S_T_PSSM_BACKGROUND_SCORES:s_t_pssm_background_scores</text>
</g>
<!-- v7&#45;&gt;v16 -->
<g id="edge9" class="edge">
<title>v7&#45;&gt;v16</title>
<path fill="none" stroke="#000000" d="M1920.3616,-150.797C1840.3839,-145.2297 1756.243,-136.5712 1719.0796,-123.6 1707.5572,-119.5783 1706.8981,-114.2479 1696.0796,-108.6 1686.351,-103.5211 1675.7392,-98.6733 1665.3421,-94.2737"/>
<polygon fill="#000000" stroke="#000000" points="1666.4643,-90.9504 1655.8857,-90.3655 1663.7907,-97.4197 1666.4643,-90.9504"/>
<text text-anchor="middle" x="1802.5796" y="-112.4" font-family="Times,serif" font-size="14.00" fill="#000000">ser_thr_kinases_pssm_dict_h5</text>
</g>
<!-- v9 -->
<g id="node12" class="node">
<title>v9</title>
<ellipse fill="#000000" stroke="#000000" cx="2294.0796" cy="-72.6" rx="1.8" ry="1.8"/>
</g>
<!-- v7&#45;&gt;v9 -->
<g id="edge10" class="edge">
<title>v7&#45;&gt;v9</title>
<path fill="none" stroke="#000000" d="M2204.2783,-143.8591C2230.5441,-138.3142 2254.4099,-131.4708 2265.0796,-123.6 2278.3223,-113.8312 2286.4004,-96.0798 2290.5583,-84.3123"/>
<polygon fill="#000000" stroke="#000000" points="2293.9658,-85.141 2293.5902,-74.5528 2287.2809,-83.0642 2293.9658,-85.141"/>
</g>
<!-- v8 -->
<g id="node13" class="node">
<title>v8</title>
<ellipse fill="#000000" stroke="#000000" cx="2319.0796" cy="-72.6" rx="1.8" ry="1.8"/>
</g>
<!-- v7&#45;&gt;v8 -->
<g id="edge11" class="edge">
<title>v7&#45;&gt;v8</title>
<path fill="none" stroke="#000000" d="M2216.6004,-144.5371C2246.4269,-139 2273.6784,-131.9907 2286.0796,-123.6 2300.3415,-113.9503 2309.8352,-95.8627 2314.8413,-84.0265"/>
<polygon fill="#000000" stroke="#000000" points="2318.1542,-85.1615 2318.4454,-74.5706 2311.6133,-82.6683 2318.1542,-85.1615"/>
</g>
<!-- v7&#45;&gt;v41 -->
<g id="edge48" class="edge">
<title>v7&#45;&gt;v41</title>
<path fill="none" stroke="#000000" d="M2097.9356,-141.5735C2095.2003,-129.6751 2091.5625,-113.8508 2088.4613,-100.3606"/>
<polygon fill="#000000" stroke="#000000" points="2091.8698,-99.565 2086.2183,-90.6034 2085.0477,-101.1333 2091.8698,-99.565"/>
<text text-anchor="middle" x="2177.5796" y="-112.4" font-family="Times,serif" font-size="14.00" fill="#000000">ser_thr_kinases_pssm_dict_h5</text>
</g>
<!-- v18 -->
<g id="node21" class="node">
<title>v18</title>
<ellipse fill="#000000" stroke="#000000" cx="1581.0796" cy="-1.8" rx="1.8" ry="1.8"/>
</g>
<!-- v16&#45;&gt;v18 -->
<g id="edge18" class="edge">
<title>v16&#45;&gt;v18</title>
<path fill="none" stroke="#000000" d="M1596.8709,-54.2859C1594.0611,-48.7254 1591.2053,-42.5188 1589.0796,-36.6 1586.4236,-29.2049 1584.4366,-20.6018 1583.1071,-13.7997"/>
<polygon fill="#000000" stroke="#000000" points="1586.5181,-12.985 1581.3582,-3.7316 1579.6214,-14.1831 1586.5181,-12.985"/>
<text text-anchor="middle" x="1603.0796" y="-25.4" font-family="Times,serif" font-size="14.00" fill="#000000">tsvgz</text>
</g>
<!-- v17 -->
<g id="node22" class="node">
<title>v17</title>
<ellipse fill="#000000" stroke="#000000" cx="1632.0796" cy="-1.8" rx="1.8" ry="1.8"/>
</g>
<!-- v16&#45;&gt;v17 -->
<g id="edge19" class="edge">
<title>v16&#45;&gt;v17</title>
<path fill="none" stroke="#000000" d="M1613.5177,-54.3672C1618.093,-41.4099 1624.098,-24.4038 1628.0209,-13.2941"/>
<polygon fill="#000000" stroke="#000000" points="1631.4299,-14.1515 1631.4593,-3.5567 1624.8293,-11.8208 1631.4299,-14.1515"/>
<text text-anchor="middle" x="1632.0796" y="-25.4" font-family="Times,serif" font-size="14.00" fill="#000000">h5</text>
</g>
<!-- v10 -->
<g id="node14" class="node">
<title>v10</title>
<ellipse fill="none" stroke="#000000" cx="230.0796" cy="-246.6" rx="230.1592" ry="18"/>
<text text-anchor="middle" x="230.0796" y="-242.9" font-family="Times,serif" font-size="14.00" fill="#000000">TYR_KINASES_PSSM:get_tyr_kinome_2024_suppl_table_2</text>
</g>
<!-- v11 -->
<g id="node15" class="node">
<title>v11</title>
<ellipse fill="none" stroke="#000000" cx="230.0796" cy="-159.6" rx="172.7694" ry="18"/>
<text text-anchor="middle" x="230.0796" y="-155.9" font-family="Times,serif" font-size="14.00" fill="#000000">TYR_KINASES_PSSM:get_tyr_kinase_pssm</text>
</g>
<!-- v10&#45;&gt;v11 -->
<g id="edge12" class="edge">
<title>v10&#45;&gt;v11</title>
<path fill="none" stroke="#000000" d="M230.0796,-228.5735C230.0796,-216.7918 230.0796,-201.1607 230.0796,-187.7581"/>
<polygon fill="#000000" stroke="#000000" points="233.5797,-187.6033 230.0796,-177.6034 226.5797,-187.6034 233.5797,-187.6033"/>
</g>
<!-- v11&#45;&gt;v34 -->
<g id="edge38" class="edge">
<title>v11&#45;&gt;v34</title>
<path fill="none" stroke="#000000" d="M307.0113,-143.4495C329.5229,-137.9692 354.007,-131.2639 376.0796,-123.6 391.299,-118.3156 393.4231,-112.3986 409.0796,-108.6 487.784,-89.5049 692.3201,-96.6761 773.0796,-90.6 789.5206,-89.363 806.7965,-87.8651 823.8543,-86.2677"/>
<polygon fill="#000000" stroke="#000000" points="824.2402,-89.7469 833.8644,-85.3169 823.5782,-82.7782 824.2402,-89.7469"/>
<text text-anchor="middle" x="481.5796" y="-112.4" font-family="Times,serif" font-size="14.00" fill="#000000">tyr_kinases_pssm_dict_h5</text>
</g>
<!-- v19 -->
<g id="node16" class="node">
<title>v19</title>
<ellipse fill="none" stroke="#000000" cx="516.0796" cy="-72.6" rx="248.0561" ry="18"/>
<text text-anchor="middle" x="516.0796" y="-68.9" font-family="Times,serif" font-size="14.00" fill="#000000">Y_PSSM_BACKGROUND_SCORES:y_pssm_background_scores</text>
</g>
<!-- v11&#45;&gt;v19 -->
<g id="edge13" class="edge">
<title>v11&#45;&gt;v19</title>
<path fill="none" stroke="#000000" d="M225.0547,-141.4131C223.2418,-130.58 223.2634,-117.2924 231.0796,-108.6 239.1687,-99.6041 282.0696,-92.2558 332.2309,-86.5984"/>
<polygon fill="#000000" stroke="#000000" points="332.7926,-90.0579 342.3518,-85.4895 332.0301,-83.0996 332.7926,-90.0579"/>
<text text-anchor="middle" x="303.5796" y="-112.4" font-family="Times,serif" font-size="14.00" fill="#000000">tyr_kinases_pssm_dict_h5</text>
</g>
<!-- v13 -->
<g id="node17" class="node">
<title>v13</title>
<ellipse fill="#000000" stroke="#000000" cx="172.0796" cy="-72.6" rx="1.8" ry="1.8"/>
</g>
<!-- v11&#45;&gt;v13 -->
<g id="edge14" class="edge">
<title>v11&#45;&gt;v13</title>
<path fill="none" stroke="#000000" d="M215.9933,-141.5358C211.7271,-135.8767 207.1073,-129.553 203.0796,-123.6 193.7986,-109.8824 184.0218,-93.4121 177.9866,-82.9746"/>
<polygon fill="#000000" stroke="#000000" points="180.9867,-81.1702 172.9885,-74.2219 174.908,-84.6414 180.9867,-81.1702"/>
</g>
<!-- v12 -->
<g id="node18" class="node">
<title>v12</title>
<ellipse fill="#000000" stroke="#000000" cx="197.0796" cy="-72.6" rx="1.8" ry="1.8"/>
</g>
<!-- v11&#45;&gt;v12 -->
<g id="edge15" class="edge">
<title>v11&#45;&gt;v12</title>
<path fill="none" stroke="#000000" d="M219.4252,-141.2802C216.4627,-135.7195 213.4197,-129.5142 211.0796,-123.6 205.9491,-110.6334 201.9786,-95.102 199.5975,-84.6128"/>
<polygon fill="#000000" stroke="#000000" points="202.9704,-83.6469 197.4637,-74.5956 196.124,-85.1053 202.9704,-83.6469"/>
</g>
<!-- v11&#45;&gt;v41 -->
<g id="edge49" class="edge">
<title>v11&#45;&gt;v41</title>
<path fill="none" stroke="#000000" d="M370.1498,-149.0399C411.342,-146.2461 456.5028,-143.4871 498.0796,-141.6 540.3257,-139.6826 1219.2958,-137.9408 1259.0796,-123.6 1269.201,-119.9516 1267.9697,-112.2802 1278.0796,-108.6 1340.8572,-85.7473 1812.3889,-94.552 1879.0796,-90.6 1898.8088,-89.4309 1919.5932,-87.9149 1940.0332,-86.2592"/>
<polygon fill="#000000" stroke="#000000" points="1940.3543,-89.7447 1950.0335,-85.4361 1939.78,-82.7683 1940.3543,-89.7447"/>
<text text-anchor="middle" x="1350.5796" y="-112.4" font-family="Times,serif" font-size="14.00" fill="#000000">tyr_kinases_pssm_dict_h5</text>
</g>
<!-- v21 -->
<g id="node23" class="node">
<title>v21</title>
<ellipse fill="#000000" stroke="#000000" cx="490.0796" cy="-1.8" rx="1.8" ry="1.8"/>
</g>
<!-- v19&#45;&gt;v21 -->
<g id="edge21" class="edge">
<title>v19&#45;&gt;v21</title>
<path fill="none" stroke="#000000" d="M505.8709,-54.2859C503.0611,-48.7254 500.2053,-42.5188 498.0796,-36.6 495.4236,-29.2049 493.4366,-20.6018 492.1071,-13.7997"/>
<polygon fill="#000000" stroke="#000000" points="495.5181,-12.985 490.3582,-3.7316 488.6214,-14.1831 495.5181,-12.985"/>
<text text-anchor="middle" x="512.0796" y="-25.4" font-family="Times,serif" font-size="14.00" fill="#000000">tsvgz</text>
</g>
<!-- v20 -->
<g id="node24" class="node">
<title>v20</title>
<ellipse fill="#000000" stroke="#000000" cx="541.0796" cy="-1.8" rx="1.8" ry="1.8"/>
</g>
<!-- v19&#45;&gt;v20 -->
<g id="edge22" class="edge">
<title>v19&#45;&gt;v20</title>
<path fill="none" stroke="#000000" d="M522.5177,-54.3672C527.093,-41.4099 533.098,-24.4038 537.0209,-13.2941"/>
<polygon fill="#000000" stroke="#000000" points="540.4299,-14.1515 540.4593,-3.5567 533.8293,-11.8208 540.4299,-14.1515"/>
<text text-anchor="middle" x="541.0796" y="-25.4" font-family="Times,serif" font-size="14.00" fill="#000000">h5</text>
</g>
<!-- v14 -->
<g id="node19" class="node">
<title>v14</title>
<ellipse fill="#000000" stroke="#000000" cx="610.0796" cy="-246.6" rx="3.6" ry="3.6"/>
</g>
<!-- v15 -->
<g id="node20" class="node">
<title>v15</title>
<ellipse fill="none" stroke="#000000" cx="610.0796" cy="-159.6" rx="103.1819" ry="18"/>
<text text-anchor="middle" x="610.0796" y="-155.9" font-family="Times,serif" font-size="14.00" fill="#000000">PSP:hs_phosphoproteome</text>
</g>
<!-- v14&#45;&gt;v15 -->
<g id="edge16" class="edge">
<title>v14&#45;&gt;v15</title>
<path fill="none" stroke="#000000" d="M610.0796,-242.8617C610.0796,-233.445 610.0796,-208.053 610.0796,-187.7647"/>
<polygon fill="#000000" stroke="#000000" points="613.5797,-187.7321 610.0796,-177.7322 606.5797,-187.7322 613.5797,-187.7321"/>
<text text-anchor="middle" x="713.0796" y="-199.4" font-family="Times,serif" font-size="14.00" fill="#000000">input/Phosphorylation_site_dataset.gz</text>
</g>
<!-- v15&#45;&gt;v16 -->
<g id="edge17" class="edge">
<title>v15&#45;&gt;v16</title>
<path fill="none" stroke="#000000" d="M692.0745,-148.6391C767.9092,-138.4682 869.6014,-124.7299 874.0796,-123.6 892.4893,-118.9551 895.477,-112.3997 914.0796,-108.6 1002.781,-90.4822 1230.6764,-95.4435 1321.0796,-90.6 1348.8547,-89.1119 1378.1388,-87.4153 1406.9481,-85.6722"/>
<polygon fill="#000000" stroke="#000000" points="1407.3461,-89.1545 1417.1152,-85.0539 1406.9212,-82.1674 1407.3461,-89.1545"/>
<text text-anchor="middle" x="982.5796" y="-112.4" font-family="Times,serif" font-size="14.00" fill="#000000">human_phosphosites_tsv</text>
</g>
<!-- v15&#45;&gt;v19 -->
<g id="edge20" class="edge">
<title>v15&#45;&gt;v19</title>
<path fill="none" stroke="#000000" d="M590.6027,-141.5735C576.8647,-128.8586 558.2827,-111.6603 543.1108,-97.6183"/>
<polygon fill="#000000" stroke="#000000" points="545.248,-94.8272 535.5315,-90.6034 540.4932,-99.9646 545.248,-94.8272"/>
<text text-anchor="middle" x="637.5796" y="-112.4" font-family="Times,serif" font-size="14.00" fill="#000000">human_phosphosites_tsv</text>
</g>
<!-- v22 -->
<g id="node25" class="node">
<title>v22</title>
<ellipse fill="none" stroke="#000000" cx="2053.0796" cy="-785.6" rx="118.8789" ry="18"/>
<text text-anchor="middle" x="2053.0796" y="-781.9" font-family="Times,serif" font-size="14.00" fill="#000000">KINASES:get_human_kinases</text>
</g>
<!-- v24 -->
<g id="node26" class="node">
<title>v24</title>
<ellipse fill="none" stroke="#000000" cx="2053.0796" cy="-698.6" rx="131.077" ry="18"/>
<text text-anchor="middle" x="2053.0796" y="-694.9" font-family="Times,serif" font-size="14.00" fill="#000000">KINASES:build_kinase_metadata</text>
</g>
<!-- v22&#45;&gt;v24 -->
<g id="edge23" class="edge">
<title>v22&#45;&gt;v24</title>
<path fill="none" stroke="#000000" d="M2053.0796,-767.5735C2053.0796,-755.7918 2053.0796,-740.1607 2053.0796,-726.7581"/>
<polygon fill="#000000" stroke="#000000" points="2056.5797,-726.6033 2053.0796,-716.6034 2049.5797,-726.6034 2056.5797,-726.6033"/>
</g>
<!-- v24&#45;&gt;v30 -->
<g id="edge32" class="edge">
<title>v24&#45;&gt;v30</title>
<path fill="none" stroke="#000000" d="M1922.3071,-696.9104C1622.866,-692.1772 913.0796,-675.6763 913.0796,-625.6 913.0796,-625.6 913.0796,-625.6 913.0796,-246.6 913.0796,-227.0194 910.5487,-205.1211 908.0334,-188.1928"/>
<polygon fill="#000000" stroke="#000000" points="911.4197,-187.1958 906.4094,-177.8605 904.5046,-188.2827 911.4197,-187.1958"/>
<text text-anchor="middle" x="948.0796" y="-432.4" font-family="Times,serif" font-size="14.00" fill="#000000">input/file.tsv</text>
</g>
<!-- v25 -->
<g id="node29" class="node">
<title>v25</title>
<ellipse fill="none" stroke="#000000" cx="2053.0796" cy="-625.6" rx="157.0724" ry="18"/>
<text text-anchor="middle" x="2053.0796" y="-621.9" font-family="Times,serif" font-size="14.00" fill="#000000">KINASES:make_kinase_sequences_fasta</text>
</g>
<!-- v24&#45;&gt;v25 -->
<g id="edge25" class="edge">
<title>v24&#45;&gt;v25</title>
<path fill="none" stroke="#000000" d="M2053.0796,-680.5551C2053.0796,-672.4828 2053.0796,-662.7764 2053.0796,-653.7817"/>
<polygon fill="#000000" stroke="#000000" points="2056.5797,-653.6903 2053.0796,-643.6904 2049.5797,-653.6904 2056.5797,-653.6903"/>
</g>
<!-- v36 -->
<g id="node33" class="node">
<title>v36</title>
<ellipse fill="none" stroke="#000000" cx="2540.0796" cy="-246.6" rx="154.8728" ry="18"/>
<text text-anchor="middle" x="2540.0796" y="-242.9" font-family="Times,serif" font-size="14.00" fill="#000000">KINASES:build_hmm_kinase_metadata</text>
</g>
<!-- v24&#45;&gt;v36 -->
<g id="edge40" class="edge">
<title>v24&#45;&gt;v36</title>
<path fill="none" stroke="#000000" d="M2175.6558,-692.0735C2319.9203,-682.708 2540.0796,-662.3888 2540.0796,-625.6 2540.0796,-625.6 2540.0796,-625.6 2540.0796,-319.6 2540.0796,-304.8996 2540.0796,-288.534 2540.0796,-275.0302"/>
<polygon fill="#000000" stroke="#000000" points="2543.5797,-274.9003 2540.0796,-264.9003 2536.5797,-274.9004 2543.5797,-274.9003"/>
<text text-anchor="middle" x="2586.0796" y="-475.9" font-family="Times,serif" font-size="14.00" fill="#000000">input/kinases.tsv</text>
</g>
<!-- v23 -->
<g id="node27" class="node">
<title>v23</title>
<ellipse fill="none" stroke="#000000" cx="2370.0796" cy="-625.6" rx="141.8751" ry="18"/>
<text text-anchor="middle" x="2370.0796" y="-621.9" font-family="Times,serif" font-size="14.00" fill="#000000">KINASES:get_kinase_domain_hmm</text>
</g>
<!-- v26 -->
<g id="node28" class="node">
<title>v26</title>
<ellipse fill="none" stroke="#000000" cx="2284.0796" cy="-552.6" rx="107.4815" ry="18"/>
<text text-anchor="middle" x="2284.0796" y="-548.9" font-family="Times,serif" font-size="14.00" fill="#000000">KINASES:run_hmmsearch</text>
</g>
<!-- v23&#45;&gt;v26 -->
<g id="edge24" class="edge">
<title>v23&#45;&gt;v26</title>
<path fill="none" stroke="#000000" d="M2348.8212,-607.5551C2337.9902,-598.3613 2324.6618,-587.0477 2312.9193,-577.0803"/>
<polygon fill="#000000" stroke="#000000" points="2314.9822,-574.2404 2305.0935,-570.4374 2310.4523,-579.5771 2314.9822,-574.2404"/>
</g>
<!-- v27 -->
<g id="node30" class="node">
<title>v27</title>
<ellipse fill="none" stroke="#000000" cx="2284.0796" cy="-479.6" rx="165.1707" ry="18"/>
<text text-anchor="middle" x="2284.0796" y="-475.9" font-family="Times,serif" font-size="14.00" fill="#000000">KINASES:extract_kinase_domain_matches</text>
</g>
<!-- v26&#45;&gt;v27 -->
<g id="edge27" class="edge">
<title>v26&#45;&gt;v27</title>
<path fill="none" stroke="#000000" d="M2284.0796,-534.5551C2284.0796,-526.4828 2284.0796,-516.7764 2284.0796,-507.7817"/>
<polygon fill="#000000" stroke="#000000" points="2287.5797,-507.6903 2284.0796,-497.6904 2280.5797,-507.6904 2287.5797,-507.6903"/>
</g>
<!-- v25&#45;&gt;v26 -->
<g id="edge26" class="edge">
<title>v25&#45;&gt;v26</title>
<path fill="none" stroke="#000000" d="M2106.6562,-608.6688C2141.6206,-597.6195 2187.3338,-583.1733 2223.6019,-571.712"/>
<polygon fill="#000000" stroke="#000000" points="2225.0836,-574.9144 2233.5641,-568.5638 2222.9742,-568.2398 2225.0836,-574.9144"/>
</g>
<!-- v25&#45;&gt;v27 -->
<g id="edge28" class="edge">
<title>v25&#45;&gt;v27</title>
<path fill="none" stroke="#000000" d="M2053.6528,-607.5757C2055.2942,-587.0594 2061.1133,-553.9003 2081.0796,-534.6 2096.7612,-519.4414 2142.0144,-506.4532 2185.8245,-496.9108"/>
<polygon fill="#000000" stroke="#000000" points="2186.673,-500.3087 2195.7264,-494.8054 2185.2171,-493.4618 2186.673,-500.3087"/>
<text text-anchor="middle" x="2124.5796" y="-548.9" font-family="Times,serif" font-size="14.00" fill="#000000">input/kinases.fa</text>
</g>
<!-- v28 -->
<g id="node31" class="node">
<title>v28</title>
<ellipse fill="none" stroke="#000000" cx="2311.0796" cy="-392.6" rx="100.9827" ry="18"/>
<text text-anchor="middle" x="2311.0796" y="-388.9" font-family="Times,serif" font-size="14.00" fill="#000000">KINASES:extract_aloops</text>
</g>
<!-- v27&#45;&gt;v28 -->
<g id="edge29" class="edge">
<title>v27&#45;&gt;v28</title>
<path fill="none" stroke="#000000" d="M2289.674,-461.5735C2293.3666,-449.6751 2298.2776,-433.8508 2302.4642,-420.3606"/>
<polygon fill="#000000" stroke="#000000" points="2305.871,-421.1914 2305.4923,-410.6034 2299.1855,-419.1166 2305.871,-421.1914"/>
</g>
<!-- v29 -->
<g id="node32" class="node">
<title>v29</title>
<ellipse fill="none" stroke="#000000" cx="2316.0796" cy="-319.6" rx="145.6742" ry="18"/>
<text text-anchor="middle" x="2316.0796" y="-315.9" font-family="Times,serif" font-size="14.00" fill="#000000">KINASES:remove_ambiguous_aloops</text>
</g>
<!-- v28&#45;&gt;v29 -->
<g id="edge30" class="edge">
<title>v28&#45;&gt;v29</title>
<path fill="none" stroke="#000000" d="M2312.3155,-374.5551C2312.8684,-366.4828 2313.5333,-356.7764 2314.1493,-347.7817"/>
<polygon fill="#000000" stroke="#000000" points="2317.6489,-347.9062 2314.8405,-337.6904 2310.6653,-347.4278 2317.6489,-347.9062"/>
</g>
<!-- v29&#45;&gt;v36 -->
<g id="edge31" class="edge">
<title>v29&#45;&gt;v36</title>
<path fill="none" stroke="#000000" d="M2367.751,-302.7607C2400.7011,-292.0225 2443.5809,-278.0482 2478.3237,-266.7258"/>
<polygon fill="#000000" stroke="#000000" points="2479.4689,-270.0338 2487.8922,-263.6075 2477.2999,-263.3783 2479.4689,-270.0338"/>
</g>
<!-- v36&#45;&gt;v37 -->
<g id="edge41" class="edge">
<title>v36&#45;&gt;v37</title>
<path fill="none" stroke="#000000" d="M2528.4763,-228.5735C2520.5923,-216.3252 2510.0304,-199.9165 2501.1863,-186.1766"/>
<polygon fill="#000000" stroke="#000000" points="2504.0235,-184.1176 2495.668,-177.6034 2498.1374,-187.9064 2504.0235,-184.1176"/>
</g>
<!-- v33 -->
<g id="node36" class="node">
<title>v33</title>
<ellipse fill="#000000" stroke="#000000" cx="1237.0796" cy="-1.8" rx="1.8" ry="1.8"/>
</g>
<!-- v32&#45;&gt;v33 -->
<g id="edge35" class="edge">
<title>v32&#45;&gt;v33</title>
<path fill="none" stroke="#000000" d="M1237.0796,-54.3672C1237.0796,-41.7838 1237.0796,-25.3818 1237.0796,-14.2703"/>
<polygon fill="#000000" stroke="#000000" points="1240.5797,-13.9527 1237.0796,-3.9527 1233.5797,-13.9527 1240.5797,-13.9527"/>
</g>
<!-- v31 -->
<g id="node35" class="node">
<title>v31</title>
<ellipse fill="#000000" stroke="#000000" cx="1283.0796" cy="-159.6" rx="3.6" ry="3.6"/>
</g>
<!-- v31&#45;&gt;v32 -->
<g id="edge34" class="edge">
<title>v31&#45;&gt;v32</title>
<path fill="none" stroke="#000000" d="M1284.5242,-156.1606C1286.4813,-151.966 1290.3959,-145.0141 1296.0796,-141.6 1347.5486,-110.6828 1465.38,-154.8387 1427.0796,-108.6 1426.5748,-107.9905 1360.6832,-95.5976 1306.6447,-85.5208"/>
<polygon fill="#000000" stroke="#000000" points="1307.1829,-82.0609 1296.7109,-83.6695 1305.9004,-88.9424 1307.1829,-82.0609"/>
<text text-anchor="middle" x="1463.0796" y="-112.4" font-family="Times,serif" font-size="14.00" fill="#000000">outputFile</text>
</g>
<!-- v39 -->
<g id="node39" class="node">
<title>v39</title>
<ellipse fill="none" stroke="#000000" cx="2600.0796" cy="-72.6" rx="84.485" ry="18"/>
<text text-anchor="middle" x="2600.0796" y="-68.9" font-family="Times,serif" font-size="14.00" fill="#000000">KINASES:publish_v</text>
</g>
<!-- v37&#45;&gt;v39 -->
<g id="edge43" class="edge">
<title>v37&#45;&gt;v39</title>
<path fill="none" stroke="#000000" d="M2507.8338,-141.7843C2525.3866,-128.6197 2549.4589,-110.5655 2568.6112,-96.2013"/>
<polygon fill="#000000" stroke="#000000" points="2570.8535,-98.8946 2576.7535,-90.0946 2566.6535,-93.2946 2570.8535,-98.8946"/>
</g>
<!-- v37&#45;&gt;v41 -->
<g id="edge46" class="edge">
<title>v37&#45;&gt;v41</title>
<path fill="none" stroke="#000000" d="M2416.6351,-143.2586C2373.4008,-132.9407 2316.0341,-119.5416 2265.0796,-108.6 2236.4772,-102.4582 2205.2704,-96.1676 2176.86,-90.5982"/>
<polygon fill="#000000" stroke="#000000" points="2177.4219,-87.1419 2166.9363,-88.6598 2176.0798,-94.0121 2177.4219,-87.1419"/>
<text text-anchor="middle" x="2403.5796" y="-112.4" font-family="Times,serif" font-size="14.00" fill="#000000">input/kinase_metadata.tsv</text>
</g>
<!-- v40 -->
<g id="node41" class="node">
<title>v40</title>
<ellipse fill="#000000" stroke="#000000" cx="2600.0796" cy="-1.8" rx="1.8" ry="1.8"/>
</g>
<!-- v39&#45;&gt;v40 -->
<g id="edge45" class="edge">
<title>v39&#45;&gt;v40</title>
<path fill="none" stroke="#000000" d="M2600.0796,-54.3672C2600.0796,-41.7838 2600.0796,-25.3818 2600.0796,-14.2703"/>
<polygon fill="#000000" stroke="#000000" points="2603.5797,-13.9527 2600.0796,-3.9527 2596.5797,-13.9527 2603.5797,-13.9527"/>
</g>
<!-- v38 -->
<g id="node40" class="node">
<title>v38</title>
<ellipse fill="#000000" stroke="#000000" cx="2662.0796" cy="-159.6" rx="3.6" ry="3.6"/>
</g>
<!-- v38&#45;&gt;v39 -->
<g id="edge44" class="edge">
<title>v38&#45;&gt;v39</title>
<path fill="none" stroke="#000000" d="M2659.7248,-156.2957C2653.0761,-146.9661 2633.6764,-119.744 2618.7891,-98.8537"/>
<polygon fill="#000000" stroke="#000000" points="2621.5916,-96.7554 2612.9378,-90.643 2615.8911,-100.8179 2621.5916,-96.7554"/>
<text text-anchor="middle" x="2662.0796" y="-112.4" font-family="Times,serif" font-size="14.00" fill="#000000">outputFile</text>
</g>
<!-- v42 -->
<g id="node43" class="node">
<title>v42</title>
<ellipse fill="#000000" stroke="#000000" cx="2082.0796" cy="-1.8" rx="1.8" ry="1.8"/>
</g>
<!-- v41&#45;&gt;v42 -->
<g id="edge50" class="edge">
<title>v41&#45;&gt;v42</title>
<path fill="none" stroke="#000000" d="M2082.0796,-54.3672C2082.0796,-41.7838 2082.0796,-25.3818 2082.0796,-14.2703"/>
<polygon fill="#000000" stroke="#000000" points="2085.5797,-13.9527 2082.0796,-3.9527 2078.5797,-13.9527 2085.5797,-13.9527"/>
</g>
<!-- v43 -->
<g id="node44" class="node">
<title>v43</title>
<ellipse fill="#000000" stroke="#000000" cx="2531.0796" cy="-785.6" rx="3.6" ry="3.6"/>
<text text-anchor="middle" x="2477.4796" y="-793" font-family="Times,serif" font-size="14.00" fill="#000000">Channel.fromPath</text>
</g>
<!-- v45 -->
<g id="node45" class="node">
<title>v45</title>
<ellipse fill="none" stroke="#000000" cx="2570.0796" cy="-698.6" rx="112.3801" ry="18"/>
<text text-anchor="middle" x="2570.0796" y="-694.9" font-family="Times,serif" font-size="14.00" fill="#000000">PUBLISH_CONFIG:publish</text>
</g>
<!-- v43&#45;&gt;v45 -->
<g id="edge51" class="edge">
<title>v43&#45;&gt;v45</title>
<path fill="none" stroke="#000000" d="M2529.8227,-782.1768C2526.9131,-773.6636 2520.519,-751.0384 2528.0796,-734.6 2529.8854,-730.6737 2532.3542,-727.0154 2535.1969,-723.6522"/>
<polygon fill="#000000" stroke="#000000" points="2537.8582,-725.9376 2542.373,-716.3529 2532.8665,-721.0302 2537.8582,-725.9376"/>
<text text-anchor="middle" x="2555.0796" y="-738.4" font-family="Times,serif" font-size="14.00" fill="#000000">config_ch</text>
</g>
<!-- v46 -->
<g id="node47" class="node">
<title>v46</title>
<ellipse fill="#000000" stroke="#000000" cx="2570.0796" cy="-625.6" rx="1.8" ry="1.8"/>
</g>
<!-- v45&#45;&gt;v46 -->
<g id="edge53" class="edge">
<title>v45&#45;&gt;v46</title>
<path fill="none" stroke="#000000" d="M2570.0796,-680.5551C2570.0796,-667.2025 2570.0796,-649.3784 2570.0796,-637.701"/>
<polygon fill="#000000" stroke="#000000" points="2573.5797,-637.4525 2570.0796,-627.4525 2566.5797,-637.4525 2573.5797,-637.4525"/>
</g>
<!-- v44 -->
<g id="node46" class="node">
<title>v44</title>
<ellipse fill="#000000" stroke="#000000" cx="2608.0796" cy="-785.6" rx="3.6" ry="3.6"/>
<text text-anchor="middle" x="2573.9796" y="-793" font-family="Times,serif" font-size="14.00" fill="#000000">Channel.of</text>
</g>
<!-- v44&#45;&gt;v45 -->
<g id="edge52" class="edge">
<title>v44&#45;&gt;v45</title>
<path fill="none" stroke="#000000" d="M2606.4925,-781.8825C2602.8918,-773.4569 2593.8155,-752.2662 2586.0796,-734.6 2584.8965,-731.8982 2583.6579,-729.085 2582.4162,-726.2747"/>
<polygon fill="#000000" stroke="#000000" points="2585.5111,-724.6199 2578.2581,-716.897 2579.112,-727.4573 2585.5111,-724.6199"/>
<text text-anchor="middle" x="2611.0796" y="-738.4" font-family="Times,serif" font-size="14.00" fill="#000000">val_ch</text>
</g>
</g>
</svg>
